<svg xmlns="http://www.w3.org/2000/svg" width="99.974" height="96.001" viewBox="0 0 99.974 96.001"><defs><style>.a{fill:none;}.b{fill:#39e0e0;}.c{fill:#4643ea;}</style></defs><g transform="translate(-900.402 -1294.748)"><g transform="translate(915.115 1305.488)"><path class="a" d="M85.261,0H0V85.261H85.261Z"/><path class="b" d="M9.105,2H65.946a7.126,7.126,0,0,1,7.105,7.105V73.051l-14.21-14.21H9.105A7.126,7.126,0,0,1,2,51.735V9.105A7.126,7.126,0,0,1,9.105,2Z" transform="translate(5.105 5.105)"/></g><g transform="translate(900.402 1294.748)"><path class="a" d="M88,0H0V88H88Z"/><path class="c" d="M9.333,9.333v48.29l4.29-4.29H68v-44H9.333M9.333,2H68a7.355,7.355,0,0,1,7.333,7.333v44A7.355,7.355,0,0,1,68,60.667H16.667L2,75.334v-66A7.355,7.355,0,0,1,9.333,2Zm7.333,36.667h44V46h-44Zm0-11h44V35h-44Zm0-11h44V24h-44Z" transform="translate(5.333 5.333)"/></g></g></svg>