<svg xmlns="http://www.w3.org/2000/svg" width="101.44" height="102.357" viewBox="0 0 101.44 102.357"><defs><style>.a{fill:none;}.b{fill:#4643ea;}.c{fill:#39e0e0;}</style></defs><g transform="translate(-10432.8 155.439)"><g transform="translate(10432.8 -155.439)"><path class="a" d="M0,0H93.1V93.1H0Z"/><path class="b" d="M10.759,71.829V9.759h7.759V36.914l9.7-5.819,9.7,5.819V9.759h19.4V37.225a24.4,24.4,0,0,1,7.759,0V9.759A7.759,7.759,0,0,0,57.311,2H10.759A7.759,7.759,0,0,0,3,9.759v62.07a7.759,7.759,0,0,0,7.759,7.759H38.923a27.66,27.66,0,0,1-3.879-7.759Z" transform="translate(8.638 5.759)"/></g><g transform="translate(10470.861 -116.46)"><path class="a" d="M0,0H63.379V63.379H0Z"/><path class="c" d="M11.563,29.883V40.446L30.049,50.534,48.534,40.446V29.883L30.049,39.971ZM30.049,3,1,18.845,30.049,34.689,53.816,21.723V39.971H59.1V18.845Z" transform="translate(1.641 4.922)"/></g></g></svg>