<svg xmlns="http://www.w3.org/2000/svg" xmlns:xlink="http://www.w3.org/1999/xlink" width="229.133" height="37.792" viewBox="0 0 229.133 37.792"><defs><style>.a{fill:#fff;}.b{fill:url(#a);}.c{fill:url(#b);}.d{fill:url(#c);}.e{fill:url(#d);}.f{fill:url(#e);}.g{fill:url(#f);}.h{fill:url(#g);}.i{fill:url(#h);}.j{fill:url(#i);}.k{fill:url(#j);}.l{fill:url(#k);}.m{fill:url(#l);}.n{fill:url(#m);}.o{fill:url(#n);}</style><linearGradient id="a" x1="-0.076" y1="0.506" x2="1.125" y2="0.49" gradientUnits="objectBoundingBox"><stop offset="0" stop-color="#fff"/><stop offset="0.28" stop-color="#fff" stop-opacity="0.8"/><stop offset="0.67" stop-color="#fff" stop-opacity="0.502"/><stop offset="0.76" stop-color="#fff" stop-opacity="0.471"/><stop offset="0.9" stop-color="#fff" stop-opacity="0.38"/><stop offset="1" stop-color="#fff" stop-opacity="0.302"/></linearGradient><linearGradient id="b" x1="0.17" y1="0.444" x2="1.167" y2="0.444" gradientUnits="objectBoundingBox"><stop offset="0" stop-color="#2514d6"/><stop offset="0.14" stop-color="#2819d8"/><stop offset="0.31" stop-color="#3227de"/><stop offset="0.48" stop-color="#423ee8"/><stop offset="0.51" stop-color="#4643ea"/><stop offset="0.66" stop-color="#654cf1"/><stop offset="0.89" stop-color="#8f58fa"/><stop offset="1" stop-color="#9f5dfd"/></linearGradient><linearGradient id="c" x1="0.185" y1="0.461" x2="1.165" y2="0.461" xlink:href="#b"/><linearGradient id="d" x1="0.164" y1="0.474" x2="1.164" y2="0.474" xlink:href="#b"/><linearGradient id="e" x1="0.267" y1="0.039" x2="0.809" y2="1.034" gradientUnits="objectBoundingBox"><stop offset="0" stop-color="#fff" stop-opacity="0.902"/><stop offset="0.12" stop-color="#fff" stop-opacity="0.812"/><stop offset="0.31" stop-color="#fff" stop-opacity="0.702"/><stop offset="0.47" stop-color="#fff" stop-opacity="0.631"/><stop offset="0.59" stop-color="#fff" stop-opacity="0.6"/><stop offset="0.67" stop-color="#fff" stop-opacity="0.569"/><stop offset="0.81" stop-color="#fff" stop-opacity="0.478"/><stop offset="0.97" stop-color="#fff" stop-opacity="0.329"/><stop offset="1" stop-color="#fff" stop-opacity="0.302"/></linearGradient><linearGradient id="f" x1="0.225" y1="0.249" x2="0.619" y2="0.643" gradientUnits="objectBoundingBox"><stop offset="0" stop-color="#fff" stop-opacity="0.902"/><stop offset="0.34" stop-color="#fff" stop-opacity="0.702"/><stop offset="0.67" stop-color="#fff" stop-opacity="0.502"/><stop offset="0.76" stop-color="#fff" stop-opacity="0.471"/><stop offset="0.9" stop-color="#fff" stop-opacity="0.38"/><stop offset="1" stop-color="#fff" stop-opacity="0.302"/></linearGradient><linearGradient id="g" x1="0.096" y1="-0.231" x2="0.893" y2="1.308" gradientUnits="objectBoundingBox"><stop offset="0" stop-color="#fff" stop-opacity="0.902"/><stop offset="0.13" stop-color="#fff" stop-opacity="0.878"/><stop offset="0.3" stop-color="#fff" stop-opacity="0.812"/><stop offset="0.51" stop-color="#fff" stop-opacity="0.69"/><stop offset="0.64" stop-color="#fff" stop-opacity="0.6"/><stop offset="0.71" stop-color="#fff" stop-opacity="0.569"/><stop offset="0.82" stop-color="#fff" stop-opacity="0.49"/><stop offset="0.95" stop-color="#fff" stop-opacity="0.361"/><stop offset="1" stop-color="#fff" stop-opacity="0.302"/></linearGradient><linearGradient id="h" x1="0.219" y1="-0.523" x2="0.869" y2="1.804" xlink:href="#g"/><linearGradient id="i" x1="0.337" y1="-0.399" x2="0.68" y2="1.854" gradientUnits="objectBoundingBox"><stop offset="0" stop-color="#fff"/><stop offset="0.24" stop-color="#fff" stop-opacity="0.8"/><stop offset="0.48" stop-color="#fff" stop-opacity="0.6"/><stop offset="0.58" stop-color="#fff" stop-opacity="0.569"/><stop offset="0.75" stop-color="#fff" stop-opacity="0.478"/><stop offset="0.96" stop-color="#fff" stop-opacity="0.329"/><stop offset="1" stop-color="#fff" stop-opacity="0.302"/></linearGradient><linearGradient id="j" x1="0.465" y1="0.256" x2="0.561" y2="0.915" gradientUnits="objectBoundingBox"><stop offset="0" stop-color="#2514d6"/><stop offset="0.17" stop-color="#3c35e4"/><stop offset="0.27" stop-color="#4643ea"/><stop offset="0.39" stop-color="#604bf0"/><stop offset="0.54" stop-color="#7b53f5"/><stop offset="0.69" stop-color="#8f58fa"/><stop offset="0.84" stop-color="#9b5cfc"/><stop offset="1" stop-color="#9f5dfd"/></linearGradient><linearGradient id="k" x1="0.458" y1="0.211" x2="0.558" y2="0.895" xlink:href="#j"/><linearGradient id="l" x1="0.492" y1="0.391" x2="0.525" y2="0.696" xlink:href="#j"/><linearGradient id="m" x1="0.034" y1="0.023" x2="0.635" y2="0.763" gradientUnits="objectBoundingBox"><stop offset="0" stop-color="#fff" stop-opacity="0.902"/><stop offset="0.39" stop-color="#fff" stop-opacity="0.702"/><stop offset="0.65" stop-color="#fff" stop-opacity="0.671"/><stop offset="1" stop-color="#fff" stop-opacity="0.6"/></linearGradient><linearGradient id="n" x1="-0.158" y1="0.674" x2="0.733" y2="0.139" gradientUnits="objectBoundingBox"><stop offset="0" stop-color="#fff" stop-opacity="0.6"/><stop offset="0.05" stop-color="#fff" stop-opacity="0.671"/><stop offset="0.13" stop-color="#fff" stop-opacity="0.749"/><stop offset="0.23" stop-color="#fff" stop-opacity="0.82"/><stop offset="0.35" stop-color="#fff" stop-opacity="0.871"/><stop offset="0.53" stop-color="#fff" stop-opacity="0.89"/><stop offset="1" stop-color="#fff" stop-opacity="0.902"/></linearGradient></defs><g transform="translate(-7188.194 -113.5)"><g transform="translate(7188.194 113.5)"><g transform="translate(0 0)"><path class="a" d="M366.262,83.1h-8.889v5.265H366v4.189h-8.626v8.563H353V78.92h13.262Z" transform="translate(-301.098 -73.827)"/><path class="a" d="M438.846,80.8a2.546,2.546,0,0,1-2.506-2.5,2.463,2.463,0,0,1,.747-1.777,2.376,2.376,0,0,1,1.76-.758,2.412,2.412,0,0,1,1.79.758,2.463,2.463,0,0,1,.754,1.777,2.412,2.412,0,0,1-.758,1.76A2.44,2.44,0,0,1,438.846,80.8Zm-2.031,17.759V82.7h4.092V98.557Z" transform="translate(-368.649 -71.265)"/><path class="a" d="M480.19,97.051V73.9h4.092V97.051Z" transform="translate(-404.192 -69.758)"/><path class="a" d="M539.076,110.06a5.628,5.628,0,0,1,4.357,1.775,6.775,6.775,0,0,1,1.633,4.757v9.768h-4.092v-9.473a3.245,3.245,0,0,0-.7-2.22,2.5,2.5,0,0,0-1.966-.794,2.682,2.682,0,0,0-2.171.921,4.041,4.041,0,0,0-.777,2.664v8.9H531.27V116.89a3.245,3.245,0,0,0-.7-2.22,2.5,2.5,0,0,0-1.966-.794,2.741,2.741,0,0,0-2.167.909,3.917,3.917,0,0,0-.809,2.664v8.9h-4.09V110.5h4.09v1.68a4.945,4.945,0,0,1,4.408-2.124,4.705,4.705,0,0,1,4.312,2.273A5.389,5.389,0,0,1,539.076,110.06Z" transform="translate(-437.708 -99.068)"/><path class="a" d="M665.07,112.4h4.38l-5.782,15.882a10.46,10.46,0,0,1-3.279,4.935,7.53,7.53,0,0,1-5.083,1.381v-3.8a4.118,4.118,0,0,0,2.616-.7,4.866,4.866,0,0,0,1.538-2.345l-6.5-15.346h4.471l4.134,10.657Z" transform="translate(-544.231 -100.965)"/><path class="a" d="M797.384,96.933h9.355v4.187H793V78.92h13.572V83.1h-9.188v4.736h8.4v4.122h-8.4Z" transform="translate(-657.74 -73.827)"/><path class="a" d="M892.909,78.75q-3.363-.254-3.361,2.7v.476h3.361v3.933h-3.361V97.778h-4.092V85.854h-4.7V97.778h-4.085V85.854H874.39V81.921h2.283v-.159a6.64,6.64,0,0,1,1.872-5.1q1.872-1.745,5.581-1.516v3.925q-3.368-.254-3.368,2.694v.159h4.7v-.476a6.6,6.6,0,0,1,1.895-5.106q1.894-1.747,5.566-1.516Z" transform="translate(-723.71 -70.486)"/><path class="a" d="M978.762,120.08q.824,2.982,4.471,2.98a4.186,4.186,0,0,0,3.552-1.584l3.3,1.895a7.866,7.866,0,0,1-6.913,3.393,8.53,8.53,0,0,1-6.311-2.378,8.366,8.366,0,0,1,5.993-14.366,7.563,7.563,0,0,1,5.757,2.41,8.388,8.388,0,0,1,2.273,5.962,9.735,9.735,0,0,1-.157,1.68Zm-.062-3.171h8.086a3.848,3.848,0,0,0-1.442-2.41,4.141,4.141,0,0,0-2.491-.794,4.3,4.3,0,0,0-2.726.841A4,4,0,0,0,978.7,116.908Z" transform="translate(-804.838 -99.035)"/><path class="a" d="M1077.762,126.8a8.372,8.372,0,1,1,0-16.744,8.2,8.2,0,0,1,4.217,1.11,7.375,7.375,0,0,1,2.887,2.98l-3.522,2.061a3.587,3.587,0,0,0-1.442-1.553,4.2,4.2,0,0,0-2.173-.568,4.1,4.1,0,0,0-3.043,1.22,4.605,4.605,0,0,0,0,6.216,4.088,4.088,0,0,0,3.042,1.22,4.344,4.344,0,0,0,2.205-.555,3.486,3.486,0,0,0,1.442-1.536l3.552,2.029a7.939,7.939,0,0,1-2.95,3A8.122,8.122,0,0,1,1077.762,126.8Z" transform="translate(-881.767 -99.065)"/><path class="a" d="M1167.363,97.366h-3.582v6.6a1.565,1.565,0,0,0,.411,1.2,1.9,1.9,0,0,0,1.207.43,17.8,17.8,0,0,0,1.964-.017v3.708q-4.217.476-5.945-.794t-1.728-4.53v-6.6h-2.76V93.433h2.76v-3.2l4.09-1.231v4.433h3.582Z" transform="translate(-952.723 -81.998)"/><path class="a" d="M1224.57,115.02c0,.422.278.767.839,1.031a11.112,11.112,0,0,0,2.046.7,21.076,21.076,0,0,1,2.41.758,4.694,4.694,0,0,1,2.046,1.538,4.27,4.27,0,0,1,.839,2.7,4.353,4.353,0,0,1-1.823,3.757,7.58,7.58,0,0,1-4.547,1.317q-4.884,0-6.661-3.774l3.548-1.989a2.936,2.936,0,0,0,3.109,2.059q2.188,0,2.188-1.362c0-.422-.282-.758-.841-1.031a12,12,0,0,0-2.046-.714,20.957,20.957,0,0,1-2.41-.794,4.925,4.925,0,0,1-2.044-1.506,3.948,3.948,0,0,1-.841-2.584,4.434,4.434,0,0,1,1.728-3.694,6.746,6.746,0,0,1,4.3-1.347,7.179,7.179,0,0,1,3.52.871,6.381,6.381,0,0,1,2.506,2.489l-3.49,1.895a2.6,2.6,0,0,0-2.537-1.618,2.315,2.315,0,0,0-1.315.349A1.086,1.086,0,0,0,1224.57,115.02Z" transform="translate(-1003.617 -99.082)"/><path class="b" d="M113.459,80.572l-.055.013c-.171-1.305-.333-2.618-.606-3.9-.379-1.777-2.306-1.1-3.573-.805A21.168,21.168,0,0,0,96.359,83.99a18.7,18.7,0,0,0-1.154,1.876c-.1-.027-.2-.053-.305-.076a18.717,18.717,0,0,1,1.459-2.463,21.163,21.163,0,0,1,12.866-8.107c1.254-.284,3.156-.959,3.56.758h0c.136.925.271,1.853.407,2.779Z" transform="translate(-91.896 -70.527)"/><path class="c" d="M222.21,208.74h.068l-.568.017C221.879,208.749,222.043,208.744,222.21,208.74Z" transform="translate(-194.681 -179.053)"/><path class="d" d="M248.305,209.405l.153-.015a2.675,2.675,0,0,1-.379.025Z" transform="translate(-216.056 -179.58)"/><path class="e" d="M250.288,209.2c-.066.015-.136.027-.208.036A1.9,1.9,0,0,0,250.288,209.2Z" transform="translate(-217.677 -179.426)"/><path class="f" d="M114.709,83.44a22.525,22.525,0,0,0-11.886,7.794c-.171-.083-.339-.161-.51-.242a32.931,32.931,0,0,0-5.8-2.273,18.7,18.7,0,0,1,1.154-1.868,21.147,21.147,0,0,1,12.866-8.107c1.267-.29,3.192-.972,3.573.805C114.375,80.822,114.538,82.134,114.709,83.44Z" transform="translate(-93.201 -73.382)"/><path class="g" d="M100,57.482c-.4-1.705-2.306-1.04-3.56-.758a21.185,21.185,0,0,0-12.866,8.107,18.717,18.717,0,0,0-1.459,2.463.511.511,0,0,1-.089-.023c-2.558-.6-2.487,2.084-2.571,3.865a69.046,69.046,0,0,0,.085,7.942q-.095-.633-.167-1.266c-.656-5.541-.1-11.431,2.857-16.293a20.07,20.07,0,0,1,10.8-8.351A28.356,28.356,0,0,1,97.3,52.09c1.942-.339,2.044,1.055,2.285,2.616C99.731,55.631,99.867,56.554,100,57.482Z" transform="translate(-79.115 -52.039)"/><path class="h" d="M150.071,143.016a26.41,26.41,0,0,0-4.939-.189c-.659.04-1.315.1-1.967.2h-.07a21.341,21.341,0,0,0-7.307,2.486q-.445.254-.879.525c.623.369,1.241.758,1.847,1.137l.059.038c.155.1.341.212.551.341,1.349.834,3.56,2.264,2.933,3.708a1.21,1.21,0,0,1,0,.22h0a1.565,1.565,0,0,1-.53,1.036,60.743,60.743,0,0,1-9.679,7.2c.286-.142.568-.28.866-.413a42.63,42.63,0,0,1,20.487-3.969c.784.051,1.58.214,2.205-.379a2.1,2.1,0,0,0,.515-1.667c.011-1.364.032-2.73.053-4.1.025-1.574.053-3.145.076-4.717C153.637,143.189,151.291,143.181,150.071,143.016Z" transform="translate(-120.419 -125.594)"/><path class="i" d="M155.44,112.731a.188.188,0,0,0-.013-.083.324.324,0,0,1-.019-.08h0a.285.285,0,0,0-.025-.078c-.008-.025-.017-.049-.027-.074a.608.608,0,0,0-.03-.074c-.023-.049-.047-.095-.074-.142-.7-1.2-3.054-1.245-4.223-1.4l-.189-.023q-.174-.023-.347-.04l-.263-.028c-.125-.015-.248-.025-.379-.034-.189-.017-.36-.034-.54-.044h-.044c-.171-.013-.343-.023-.513-.03h-.165c-.14,0-.279-.013-.421-.015h-1.194c-.142,0-.284,0-.426.013H146.4c-.157,0-.316.013-.472.027h-.049a3.986,3.986,0,0,0-.447.036l-.14.011-.127.011a2.04,2.04,0,0,0-.282.03l-.165.017-.309.04-.519.074a21.357,21.357,0,0,0-8.319,3.183,22.852,22.852,0,0,0-4.134,3.478l.076.036q1.368.669,2.705,1.4c.413.225.826.457,1.233.7.28-.189.568-.379.854-.546a21.277,21.277,0,0,1,7.745-2.8h0l.125-.019c.546-.083,1.1-.144,1.652-.189a25.837,25.837,0,0,1,5.288.169c1.237.159,3.62.167,4.276,1.485q.017-1.1.03-2.205c0-.839.019-1.682.025-2.522A1.668,1.668,0,0,0,155.44,112.731Z" transform="translate(-121.513 -99.497)"/><path class="j" d="M172.467,140.96c0,.218,0,.432-.009.648-.665-1.294-3.007-1.3-4.23-1.463a26.416,26.416,0,0,0-4.939-.189c-.659.04-1.315.1-1.966.2h-.07a21.341,21.341,0,0,0-7.315,2.488q-.445.254-.879.525c-.178-.106-.356-.212-.538-.314.28-.189.568-.379.854-.546a21.278,21.278,0,0,1,7.762-2.8h0l.125-.019c.547-.083,1.1-.144,1.652-.189a25.861,25.861,0,0,1,5.289.169C169.429,139.634,171.812,139.641,172.467,140.96Z" transform="translate(-138.6 -122.719)"/><path class="k" d="M131.874,230.549c.129-.063.254-.121.379-.189l-.513.244A.955.955,0,0,0,131.874,230.549Z" transform="translate(-121.756 -196.577)"/><path class="l" d="M252.547,208.25a1.328,1.328,0,0,1-.227.108A1.808,1.808,0,0,0,252.547,208.25Z" transform="translate(-219.492 -178.656)"/><path class="m" d="M251.71,208.864c.042-.013.078-.028.116-.044l-.028.013C251.765,208.843,251.738,208.854,251.71,208.864Z" transform="translate(-218.998 -179.118)"/><path class="n" d="M99.987,145.631h0a1.565,1.565,0,0,1-.53,1.036,60.743,60.743,0,0,1-9.679,7.2c-1.156.568-2.287,1.176-3.384,1.843-.714.438-1.387.947-2.1,1.375q1.8-1.44,3.548-2.936a51.691,51.691,0,0,0,5.852-5.613c2.137-2.516-3.007-4.562-4.594-5.375-.777-.4-1.565-.779-2.357-1.137-2.1-.947-4.236-1.8-6.392-2.626a8.273,8.273,0,0,1,.428-2.9,1.644,1.644,0,0,1,2.137-.856,31.469,31.469,0,0,1,6.2,2.376,61.773,61.773,0,0,1,7.228,3.978c.947.616,3.475,1.967,3.641,3.41A1.214,1.214,0,0,1,99.987,145.631Z" transform="translate(-80.102 -119.729)"/><path class="o" d="M92.637,164.685a51.691,51.691,0,0,1-5.852,5.613q-1.747,1.495-3.548,2.936h0l-.032.025a1.637,1.637,0,0,1-1.362.392h0a1.758,1.758,0,0,1-1.26-1.254,33.821,33.821,0,0,1-1.224-7.811,61.436,61.436,0,0,1-.227-9.107c.055.019.112.042.167.064,2.156.826,4.295,1.671,6.392,2.626.792.362,1.58.739,2.357,1.137C89.63,160.125,94.774,162.17,92.637,164.685Z" transform="translate(-79.042 -135.883)"/></g></g></g></svg>