<svg xmlns="http://www.w3.org/2000/svg" width="19.801" height="17.649" viewBox="0 0 19.801 17.649"><defs><style>.a{fill:#4643ea;}</style></defs><g transform="translate(-0.007 -0.008)"><g transform="translate(0.007 0.008)"><path class="a" d="M19.808,5.288V6.64a1.112,1.112,0,0,1-.031.151,7.178,7.178,0,0,1-1.191,3.045,16.753,16.753,0,0,1-2.686,3c-1.683,1.56-3.446,3-5.175,4.5a1.16,1.16,0,0,1-1.618-.016c-1.732-1.485-3.487-2.933-5.159-4.47A16.464,16.464,0,0,1,1.173,9.729a6.676,6.676,0,0,1-1-5.243A5.526,5.526,0,0,1,4.735.076,5,5,0,0,1,8.394.89a6.1,6.1,0,0,1,1.37,1.3c.143.185.159.182.309,0s.242-.3.377-.439A5.038,5.038,0,0,1,15.463.159a5.353,5.353,0,0,1,4.013,3.672A8.371,8.371,0,0,1,19.808,5.288Z" transform="translate(-0.007 -0.008)"/></g></g></svg>