<svg xmlns="http://www.w3.org/2000/svg" width="61.846" height="61.846" viewBox="0 0 61.846 61.846"><defs><style>.a{fill:none;stroke:#4643ea;stroke-miterlimit:10;stroke-width:2px;}.b{fill:#4643ea;}</style></defs><g transform="translate(1 1)"><g transform="translate(0 0)"><path class="a" d="M30.7,60.656h0A29.923,29.923,0,0,1,.78,30.733h0A29.923,29.923,0,0,1,30.7.81h0A29.923,29.923,0,0,1,60.626,30.733h0A29.923,29.923,0,0,1,30.7,60.656Z" transform="translate(-0.78 -0.81)"/><path class="b" d="M25.776,12.322c4.394,0,4.914,0,6.646.094a8.473,8.473,0,0,1,3.04.567,4.914,4.914,0,0,1,1.89,1.228A4.725,4.725,0,0,1,38.58,16.1a8.473,8.473,0,0,1,.567,3.04c.079,1.732.094,2.252.094,6.646s0,4.914-.094,6.646a8.473,8.473,0,0,1-.567,3.04,5.433,5.433,0,0,1-3.15,3.15,8.473,8.473,0,0,1-3.04.567c-1.732.079-2.252.094-6.646.094s-4.914,0-6.646-.094a8.473,8.473,0,0,1-3.04-.567,4.725,4.725,0,0,1-1.89-1.228,4.914,4.914,0,0,1-1.228-1.89,8.473,8.473,0,0,1-.535-3.071c0-1.732-.094-2.252-.094-6.646s0-4.914.094-6.646a8.473,8.473,0,0,1,.567-3.04,5.433,5.433,0,0,1,3.15-3.15,8.473,8.473,0,0,1,3.04-.567c1.732,0,2.252-.094,6.646-.094m0-2.961c-4.457,0-5.024,0-6.772.094a12.331,12.331,0,0,0-3.937.787,8.5,8.5,0,0,0-4.9,4.9,12.331,12.331,0,0,0-.756,3.984c-.079,1.748-.094,2.315-.094,6.772s0,5.024.094,6.772a12.6,12.6,0,0,0,.756,4,8.536,8.536,0,0,0,4.9,4.725,11.922,11.922,0,0,0,3.984.756c1.748.079,2.315.094,6.772.094s5.024,0,6.772-.094a12.111,12.111,0,0,0,4-.756,8.567,8.567,0,0,0,4.8-4.8,12.6,12.6,0,0,0,.756-4c.079-1.748.094-2.315.094-6.772s0-5.024-.094-6.772a12.331,12.331,0,0,0-.835-3.906,8.536,8.536,0,0,0-4.8-4.819,12.6,12.6,0,0,0-4-.756c-1.748-.079-2.315-.094-6.772-.094" transform="translate(4.147 4.088)"/><path class="b" d="M22.861,14.42A8.441,8.441,0,1,0,31.3,22.861a8.441,8.441,0,0,0-8.441-8.441m0,13.922a5.481,5.481,0,1,1,5.481-5.481,5.481,5.481,0,0,1-5.481,5.481" transform="translate(7.062 7.014)"/><path class="b" d="M28.037,14.906a1.937,1.937,0,1,0,0,.063" transform="translate(12.627 6.198)"/></g></g></svg>