<svg xmlns="http://www.w3.org/2000/svg" width="727.264" height="386.813" viewBox="0 0 727.264 386.813"><defs><style>.a{fill:#f5f5ff;}.b{fill:#e1e1ff;}.c{fill:#b7d3f3;}.d{fill:#d2e3fc;}.e{fill:#c5dcf8;}.f{fill:#ffb27d;}.g{fill:#4643ea;}.h{fill:#2514d6;}.i{fill:#2a2a4f;}.j{fill:#ed975d;}.k{fill:#fff;}.l{fill:#39e0e0;}.m{fill:aqua;}.n{fill:#f9ddbf;}.o{fill:#95c0f4;}.p{fill:#78acea;}.q{fill:#b3b3ff;}.r{fill:#373763;}.s{fill:#9db0f4;}.t{fill:#e2915a;}.u{fill:#233862;}.v{fill:#dceaff;}.w{fill:#163560;}.x{fill:#ed985f;}</style></defs><g transform="translate(-165.86 -315.987)"><path class="a" d="M327.831,701.723s-99.4-105.64-29.7-204.183c26.01-36.772,92.411-57.42,153.45-40.669,36.055,9.9,90.742,8.433,144.161-78.78,72.868-118.94,375.313-64.858,316.276,143.537-24.869,87.777,67.82,91.773,21.907,180.293Z" transform="translate(-77.925)"/><path class="b" d="M906.944,819.738l-216.523,181.14L576.5,903.834c-21.322,18.775-54.253,47.758-87.382,76.839-22.639,19.875-40.971,35.934-55.82,48.946l-103.47-.121c28.694-24.429,144.224-125.938,222.059-194.564l23.8-20.978,115.16,98.106L859.877,770.65Z" transform="translate(-118.882 -329.642)"/><path class="b" d="M2157.75,650.748l103.121,103.434L2290,636.02Z" transform="translate(-1444.171 -232.032)"/><path class="c" d="M872.382,1371.687a193.367,193.367,0,0,0-2.2-23.455c-1.584-9.159-3.025-14.428-3.025-14.483-.209-.806-3.223-4.067-9.924-3.965s-6.066,4.375-6.066,4.375h0a1.372,1.372,0,0,0,.049.379,205.265,205.265,0,0,1,5.948,51.324c0,.4-.049,1.1-.019,1.568,0,0,15.531.4,15.533,0C873.209,1384.914,872.945,1377.94,872.382,1371.687Z" transform="translate(-496.854 -735.026)"/><path class="d" d="M878.9,1385.719c0,.4-.214.723-.473.723h0c-.258,0-.462-.327-.465-.723h-13.32c0,.4-.214.723-.473.723h0c-.275,0-.47-.338-.468-.742a201.582,201.582,0,0,0-1.1-22.738,178.728,178.728,0,0,0-5.087-28.424,1.377,1.377,0,0,1-.049-.379s-.635-4.273,6.066-4.375,9.718,3.159,9.927,3.965c0,.041.825,3.025,1.892,8.39.355,1.776.74,3.814,1.133,6.093a190.08,190.08,0,0,1,2.2,23.455C879.245,1377.94,879.444,1383.2,878.9,1385.719Z" transform="translate(-501.421 -735.026)"/><path class="e" d="M876.575,1524.615h52.179s-1.215-4.906-31.441-4.185C875.937,1520.949,876.575,1524.615,876.575,1524.615Z" transform="translate(-515.285 -873.199)"/><path class="c" d="M861.14,1589.2c6.05-30.627,4.493-49.421,4.488-49.658-.017-.473.852-.9,1.32-.916s2.563-.14,2.8.275c.319.528,1.537,23.683-7.479,50.32Z" transform="translate(-504.095 -886.426)"/><path class="c" d="M1014.991,1589.2c-6.049-30.627-4.493-49.421-4.485-49.658,0-.473-.855-.9-1.323-.916s-2.56-.14-2.8.275c-.316.528-1.537,23.683,7.482,50.32Z" transform="translate(-609.229 -886.426)"/><path class="c" d="M1050.1,1589.2c-6.049-30.627-4.5-49.421-4.488-49.658.014-.473-.855-.9-1.323-.916s-2.56-.14-2.8.275c-.316.528-1.534,23.683,7.482,50.32Z" transform="translate(-634.686 -886.426)"/><path class="c" d="M896.49,1589.2c6.05-30.627,4.493-49.421,4.485-49.658,0-.473.855-.9,1.323-.916s2.56-.14,2.8.275c.316.528,1.534,23.683-7.482,50.32Z" transform="translate(-529.725 -886.426)"/><rect class="c" width="54.316" height="2.84" rx="1.42" transform="translate(360.253 650.146)"/><path class="f" d="M1051.88,1360.276l17.345-3.756,1.02,2.475s-19.133,11.406-20.931,10.856S1051.88,1360.276,1051.88,1360.276Z" transform="translate(-640.211 -754.412)"/><path class="f" d="M1001.38,1618.955a1.54,1.54,0,0,0-.275,1.65h0c.4,1.1,1.71,2.326,3.236,3.55.2.157.368.3.52.434.039.033.08.069.116.1l.091.08c1.422,1.312.888,1.611,3.443,4.273,2.915,3.025,4.922,3.088,5.5,2.813.481-.236-.5-1.845-1.587-3.652-.052-.088-.1-.176-.16-.275l-.432-.726c-1.273-2.175-.946-3.2-.646-6.434.247-2.632,4.094-14.7,4.094-14.7l-5.585-.963s-1.683,9.611-3.536,11.09c-.99.789-2.1.8-3.052,1.375-.066.041-.135.082-.2.126A7.3,7.3,0,0,0,1001.38,1618.955Z" transform="translate(-605.482 -934.646)"/><path class="g" d="M1001.38,1651.871a1.54,1.54,0,0,0-.275,1.65h0a11.841,11.841,0,0,0,3.242,3.539c.192.159.363.308.514.445.038.033.08.069.116.1l.091.08c1.422,1.312.888,1.611,3.443,4.273,2.915,3.025,4.922,3.088,5.5,2.813.481-.237-.5-1.845-1.587-3.652a12.415,12.415,0,0,1-5.194-3.83c-1.757-2.238-2.926-5.117-4.125-6.783-.066.041-.135.082-.2.126a7.284,7.284,0,0,0-1.526,1.235Z" transform="translate(-605.482 -967.563)"/><path class="f" d="M1154.485,1611.014c.344,1.724,2.8,1.435,5.549.765s2.092.126,6-.305,5.093-1.889,5.224-2.475c.107-.517-1.823-.7-3.9-.938-.258-.027-.52-.06-.784-.093-2.337-.294-4.05-1.8-6.173-3.041-2.013-1.174-5.015-5.956-5.015-5.956l-5.359.423s2.813,4.273,3.9,6.129a6.5,6.5,0,0,1,.525,3.652A6.946,6.946,0,0,0,1154.485,1611.014Z" transform="translate(-713.548 -930.195)"/><path class="g" d="M1171.6,1635.748c2.75-.671,2.093.126,6-.305s5.092-1.889,5.224-2.475c.107-.517-1.823-.7-3.9-.938l-.019.041a11,11,0,0,1-5.6,1.738c-2.651.066-5.458-.7-7.29-.665a6.954,6.954,0,0,0,.041,1.834C1166.391,1636.7,1168.849,1636.422,1171.6,1635.748Z" transform="translate(-725.11 -954.164)"/><path class="f" d="M1122.87,1346.74s1.276-3.129,2.681-3.256,5.874-.825,6.192-.193a4.419,4.419,0,0,1-.96,3.767c-.96.83-6.894,2.169-6.894,2.169Z" transform="translate(-693.857 -744.632)"/><path class="h" d="M1043.065,1495.442l-11.549,31.072a10.61,10.61,0,0,1-3.476-.319,14.761,14.761,0,0,1-3.36-1.65s2.865-29.846,8.12-36.052S1043.065,1495.442,1043.065,1495.442Z" transform="translate(-622.666 -848.89)"/><path class="g" d="M908.557,1448.247s33.187-11.222,40.589-8.835,29.623,46.6,29.623,46.6a4.3,4.3,0,0,1-1.87,1.18,17.63,17.63,0,0,1-4.356.448s-20.057-17.192-22.443-22.2-3.341-9.789-5.73-9.313-30.8,11.7-37.245,5.016-4.76-15.371-4.76-15.371Z" transform="translate(-533.839 -814.27)"/><path class="i" d="M921.563,1181.239a7.875,7.875,0,0,0-4.356-.825,2.044,2.044,0,0,1,.918-.437,6.765,6.765,0,0,0-2.411.63c-10.372-4-12,11.274-11.783,14.824s.242,7.63-4.95,10.815c-10.174,6.261-1.592,17.191-1.592,17.191.08.047,4.74,7.949,4.74,7.949-.275-2.868,12.968-18,19.87-22.529,1.68-2.475,2.277-6.844,2.321-7.188a18.487,18.487,0,0,1-1.413,6.5C928.768,1202.783,925.366,1183.4,921.563,1181.239Z" transform="translate(-527.925 -626.391)"/><path class="f" d="M968.608,1258.938c.036,0-3.333,1.763-5.865,1.07-2.381-.649-3.938-3.737-3.9-3.745,1.009-.2,1.3-1.587,1.279-7.543l.454.088,7.669,1.518s-.173,2.414-.179,4.674C968.056,1256.922,968.171,1258.734,968.608,1258.938Z" transform="translate(-574.929 -676.255)"/><path class="j" d="M972.779,1250.522s-.173,2.414-.179,4.674c-4.292-.121-6.561-4.037-7.49-6.206Z" transform="translate(-579.476 -676.451)"/><path class="i" d="M954.735,1204.439a22.546,22.546,0,0,1-2.788-6.6c-.385-2.167.721-10.21,8.8-9.05a10.974,10.974,0,0,1,4.554,1.721c1.754,1.182,4.287,3.742,1.455,10.757l-.734,2.37Z" transform="translate(-569.885 -632.721)"/><path class="f" d="M971.1,1217.22s-10.152.168-10.174-6.156-1.32-10.562,5.161-10.936,7.746,2.038,8.249,4.147S973.74,1217.014,971.1,1217.22Z" transform="translate(-576.354 -640.996)"/><path class="i" d="M962.173,1196.276s-2.78,7.424-7.047,8.524-6.115-.047-6.115-.047a12.077,12.077,0,0,0,3.951-7.149S960.075,1192.743,962.173,1196.276Z" transform="translate(-567.804 -637.298)"/><path class="i" d="M994.37,1198.667a8.9,8.9,0,0,1,2.582,3.267c.506,1.617.734,4.925,1.7,4.812,0,0,2.093-5.043-.275-7.895C995.9,1195.824,994.37,1198.667,994.37,1198.667Z" transform="translate(-600.691 -639.088)"/><path class="g" d="M900.68,1306.126c-1-4.2,2.406-12.347,5.961-19.091,3.225-6.115,6.575-11.076,6.874-10.9,8.508,5.051,9.278.852,9.278.852h0s7.73,1.026,9.918,4.793c2.716,4.674,5.648,17.739,8.563,20.211-.448,1.375-.256,2.1.217,3.795.1.363.215.709.338,1.037a19.789,19.789,0,0,0,1.463,3c-1.482.9-4.342,2.612-6.448,1.375-3.212-1.881-5.719-7.6-7.13-9.883v-.025c-3.066,17.354,1.1,21.305-1.009,23.134-2.227,1.925-5.412-.919-12.415,2.117-4.595,1.993-10.969,4.872-15.261,5.376-2.249.275-3.93-.129-4.477-1.65C894.95,1325.867,902.591,1314.134,900.68,1306.126Z" transform="translate(-529.609 -696.13)"/><path class="k" d="M990,1247.1s.187.8,2.2.679c0,0,1.68-.1,1.628-.987A5.44,5.44,0,0,0,990,1247.1Z" transform="translate(-597.522 -674.704)"/><path class="h" d="M896.52,1379.706c.55,1.518,2.227,1.925,4.477,1.65,2.97-1.3,15.8-6.267,15.674-9.624-.214-4.985-2.475-5.145-.877-11.3,1.279-4.949-10.578-14.131-12.467-16.13-3.558,6.745-3.654,7.064-2.653,11.274C902.57,1363.557,894.928,1375.29,896.52,1379.706Z" transform="translate(-529.588 -745.553)"/><path class="g" d="M889.124,1312.306a18.822,18.822,0,0,1,6.206-5.733c-.357-.927,9.572-13.1,9.572-14.986s2.651-15.437,2.651-15.437-8.277.512-11.139,4.507C892.831,1285.653,885.387,1304.882,889.124,1312.306Z" transform="translate(-523.643 -696.142)"/><path class="f" d="M897.744,1386.79l16.534,4.314-1.551,2.785s-20.123-.14-21.19-1.375S897.744,1386.79,897.744,1386.79Z" transform="translate(-526.058 -776.359)"/><path class="h" d="M1017.75,1367.76c1.411,2.279,3.918,8,7.13,9.882,2.106,1.229,4.966-.481,6.448-1.375a19.778,19.778,0,0,1-1.463-3c-1.182.275-2.623.616-3.555.9C1024.5,1374.7,1017.75,1367.76,1017.75,1367.76Z" transform="translate(-617.642 -762.562)"/><path class="f" d="M970.424,1399.37s5.194-1.471,6.432-1.127,5.472,3.151,4.878,3.913-4.331-.456-6.049-.225-3.047,1.078-4.284.894a14.2,14.2,0,0,1-2.53-.668Z" transform="translate(-582.202 -784.625)"/><path class="f" d="M974.52,1396.922a19.53,19.53,0,0,0,3.264-2.048.2.2,0,0,1,.316.036c.193.305.374.9-.517,1.482A4.8,4.8,0,0,1,974.52,1396.922Z" transform="translate(-586.299 -782.176)"/><path class="l" d="M997.915,1423.975H973.69a1.925,1.925,0,0,1,1.925-1.925h22.3Z" transform="translate(-585.697 -801.923)"/><path class="l" d="M1037.208,1333.1h37.454l-8.984,26.384h-37.7Z" transform="translate(-625.059 -737.432)"/><path class="m" d="M1076.672,1333.1l-8.986,26.381h-37.7l9.228-26.381Z" transform="translate(-626.516 -737.432)"/><path class="n" d="M1116.554,1375.366a2.433,2.433,0,0,1-2.246,1.826,1.4,1.4,0,0,1-1.405-1.826,2.439,2.439,0,0,1,2.247-1.826A1.406,1.406,0,0,1,1116.554,1375.366Z" transform="translate(-686.592 -766.752)"/><path class="l" d="M1110.241,1333.071l-8.986,26.37H1076.29c16.537-5.642,20.939-22.853,21.679-26.381Z" transform="translate(-660.085 -737.404)"/><path class="o" d="M802.528,1520.471a.97.97,0,0,0,.96-.789l4.7-26.672,6.764-38.348,1.892-10.724-4.818-.137-.825,6.225-5.871,43.746-3.481,25.93a.679.679,0,0,0,.674.77Z" transform="translate(-461.107 -817.693)"/><path class="p" d="M835.84,1450.066a6.907,6.907,0,0,1,3.762,4.636l1.892-10.724-4.818-.137Z" transform="translate(-485.752 -817.722)"/><path class="o" d="M1202.5,1520.471a.97.97,0,0,1-.96-.789l-4.7-26.672-6.767-38.348-1.892-10.724,4.818-.137.825,6.225,5.873,43.746,3.478,25.93a.679.679,0,0,1-.674.77Z" transform="translate(-741.208 -817.693)"/><path class="p" d="M1193.833,1450.066a6.906,6.906,0,0,0-3.761,4.636l-1.892-10.724,4.818-.137Z" transform="translate(-741.208 -817.722)"/><rect class="p" width="129.299" height="8.42" rx="4.21" transform="translate(464.562 630.463) rotate(180)"/><rect class="i" width="727.264" height="1.93" rx="0.965" transform="translate(165.86 700.595)"/><path class="f" d="M1901.159,1412.71s-3.2,3.97-2.2,4.512,3.643,1.554,4.268.916.825-5.318.825-5.318Z" transform="translate(-1256.4 -795.151)"/><path class="f" d="M1899.4,1413a4.688,4.688,0,0,0-1.823,1.136c-.514.682-1.65,1.719-1.375,2s1.925-.982,1.925-.982Z" transform="translate(-1254.508 -795.362)"/><path class="q" d="M1919.413,1219.88s-3.608,33.594-3.929,34.551c-.069.206-.352,1.27-.75,2.8-.57,2.2-1.375,5.326-2.134,8.313-1.147,4.51-2.2,8.673-2.2,8.673l-3.135-1.034s-.162-16.325.644-20.073,3.385-26.857,4.675-29.972S1919.413,1219.88,1919.413,1219.88Z" transform="translate(-1262.552 -655.345)"/><path class="i" d="M1862.833,1451.786l-19.68-5.161a4.829,4.829,0,0,1-3.434-5.879l2.235-8.524a4.826,4.826,0,0,1,5.879-3.434l19.679,5.161a4.828,4.828,0,0,1,3.437,5.879l-2.238,8.524A4.829,4.829,0,0,1,1862.833,1451.786Z" transform="translate(-1213.478 -806.695)"/><path class="r" d="M1851.322,1429.769l-2.263,8.626a4.84,4.84,0,0,0,1.174,4.551,4.677,4.677,0,0,0,1.292.973h0a4.776,4.776,0,0,0,.979.388l19.644,5.153a4.848,4.848,0,0,0,5.9-3.448l2.263-8.629a4.848,4.848,0,0,0-3.448-5.9l-6.764-1.774.481-1.839a1.6,1.6,0,0,0-1.135-1.947l-.742-.2-4.125-1.078-1.023-.275a1.6,1.6,0,0,0-1.944,1.138l-.484,1.84-3.918-1.028c-.157-.041-.311-.071-.465-.1h0a4.841,4.841,0,0,0-4.2,1.391h0A4.783,4.783,0,0,0,1851.322,1429.769Zm17.816-.324-7.031-1.845.484-1.84a.6.6,0,0,1,.726-.424l1.765.462,3.239.85.875.228a.642.642,0,0,1,.165.072.6.6,0,0,1,.275.657Z" transform="translate(-1220.249 -803.571)"/><path class="f" d="M1903.67,1426.105s.874-1.471.55-1.985-1.507,1.526-1.507,1.526.806-1.752.506-2.04-1.548,1.738-1.548,1.738.767-1.7.5-1.76-1.185,1.432-1.185,1.432.476-1.276.041-1.213-1.375,1.221-1.375,1.221Z" transform="translate(-1257.041 -803.031)"/><path class="s" d="M1924.477,1314.34c-.569,2.2-1.375,5.326-2.134,8.313a32.346,32.346,0,0,1-1.507-6.6c-.726-5.557,1.5-17.4,1.5-17.4Z" transform="translate(-1272.297 -712.455)"/><path class="f" d="M2079.159,1407.68s3.49,2.835,3.921,3.72a19,19,0,0,1,1.458,5.224c-.058,1.061-2.673-2.417-3.443-2.7s.8,1.427.627,1.793-1.815-.825-2.439-1.221-1.062-3.041-1.994-4.485S2079.159,1407.68,2079.159,1407.68Z" transform="translate(-1385.696 -791.505)"/><path class="h" d="M1918.09,1691.136h17.395c1.246-.844-.336-9.107-.336-9.107s-4.748-1.8-5.568,1.861-6.049,4.823-8.813,5.271A2.976,2.976,0,0,0,1918.09,1691.136Z" transform="translate(-1270.411 -990.093)"/><path class="h" d="M2011.91,1691.136h17.4c1.246-.844-.338-9.107-.338-9.107s-4.746-1.8-5.565,1.861-6.05,4.823-8.8,5.271A2.972,2.972,0,0,0,2011.91,1691.136Z" transform="translate(-1338.433 -990.093)"/><path class="g" d="M1935.11,1406.17s.781,9.756,1.7,21.484c1.249,15.929,4.62,55.424,4.62,55.424s2.2,1.884,7.1.853a154.681,154.681,0,0,0,5.409-29.175l.058-.77c1.16-15.83,2.961-49.165,2.961-49.165Z" transform="translate(-1282.751 -789.431)"/><path class="h" d="M1934.14,1397.47s1.047,13.127,1.966,24.855l17.128,27.1.058-.77c1.16-15.83,2.962-49.166,2.962-49.166Z" transform="translate(-1282.048 -784.102)"/><path class="g" d="M1952.29,1381.719s12.423,30.924,16.394,42.646c2.83,8.348,10.807,37.638,10.807,37.638a8.018,8.018,0,0,0,6.385-.984s2.97-29.925-3.025-38.365c-3.179-4.476-.789-46.534-13.686-46.894S1952.29,1381.719,1952.29,1381.719Z" transform="translate(-1295.207 -768.352)"/><path class="q" d="M1957.394,1270.365c-5.178,2.923-27.371,2.857-28.4.55-2.3-5.123-2.873-31.149-1.79-39.132,0,0,.55-12.269,1.79-11.728,8.2-3.767,21.465-.346,21.465-.346,3.575,1.053,3.27,9.228,4.268,20.708q.192,2.219.429,4.614c.707,7.089,1.735,15.231,3.3,23.821C1958.558,1269.433,1958.164,1269.933,1957.394,1270.365Z" transform="translate(-1276.638 -654.19)"/><path class="f" d="M1967.516,1194.639c-.138,2.2-3,1.947-6.44,1.16s-2.2-2.813-2.2-2.813.049-1.559.275-3.429c.08-.679.178-1.4.311-2.1.06-.341.126-.682.2-1.006.451-1.925,6.874-.069,6.83.451C1966.366,1188.3,1967.381,1192.915,1967.516,1194.639Z" transform="translate(-1299.824 -630.486)"/><path class="h" d="M1963.332,1224.423l-.272-3.033,3.808.72-1.465,2.706Z" transform="translate(-1303.015 -656.44)"/><path class="s" d="M1953.757,1207.29l-2.277,3.462a5.034,5.034,0,0,0,1.977,3.674l3.115-2.9S1954.557,1210.76,1953.757,1207.29Z" transform="translate(-1294.62 -646.217)"/><path class="s" d="M1970,1212.977a8.105,8.105,0,0,0,1.892,3.377s4.859-1.306,6.016-3.8l-2.53-3.267S1975.252,1211.762,1970,1212.977Z" transform="translate(-1308.047 -647.667)"/><path class="t" d="M1967.82,1192.019a11.922,11.922,0,0,1-7.38,1.567c.08-.679.179-1.4.311-2.1.844-.2,1.554-.333,1.554-.333Z" transform="translate(-1301.116 -634.515)"/><path class="f" d="M1964.5,1154.346c-1.512,4.16-7.031,3.1-9.38,2.431-.662-.187-1.072-.344-1.072-.344-.726-.33-.949-1.6-.885-3.2.124-3.168,1.375-7.639,2.093-8.717,1.081-1.622,2.882-3.27,8.249-.974S1966.439,1149.015,1964.5,1154.346Z" transform="translate(-1295.832 -599.18)"/><path class="u" d="M1970.506,1144.364c-1.688,1.375-5.318,3.927-5.318,3.927a6.592,6.592,0,0,0,.9-1.853,1.777,1.777,0,0,0,.066-.627,3.467,3.467,0,0,1,.5-1.925c.22-.36.3-.731.022-1-.459-.434-1.243-.036-1.757.316a1.04,1.04,0,0,1-1.13.03h0c-1.441-.9.151-2.5-1.02-3.819s-6.253-1.5-6.049-2.332c-1.732-.979-.641-4.592-.608-4.784a18.746,18.746,0,0,0,5.593-.55c2.522-.632,5.3.987,6.182,1.65a1.43,1.43,0,0,0-.14-.616,1.314,1.314,0,0,1,.374.825c.038.039.055.066.044.074a1.649,1.649,0,0,1,.795.184s-.214-.069-.316.061a.27.27,0,0,1-.044.033C1971.958,1136.343,1971.908,1143.228,1970.506,1144.364Z" transform="translate(-1297.705 -591.345)"/><path class="k" d="M1958.471,1181.28s-.275.525-1.65.091c0,0-1.147-.366-.957-.971A3.868,3.868,0,0,1,1958.471,1181.28Z" transform="translate(-1297.783 -626.715)"/><path class="h" d="M1956.146,1232.42s-3.041,38.408-3,41.609,3.368,6.583,3.368,6.583a14.083,14.083,0,0,0,3.165-5.961c.517-3.061-1.466-41.838-1.466-41.838Z" transform="translate(-1295.829 -664.437)"/><path class="q" d="M2013.17,1223.51s4.906,1.174,8.785,8.626,6.943,22.482,8.8,26.447,3.124,16.46,3.124,16.46l-2.934,1.438s-7.078-12.8-8.126-17c-.566-2.271-9.222-20.455-9.222-20.455Z" transform="translate(-1339.346 -657.977)"/><path class="s" d="M2020.5,1323.23h0c-9.239-1.328-6.6-31.9-5.868-32.026s3.382,5.467,3.382,5.467l.253,1.24c.707,7.089,1.735,15.231,3.3,23.821C2021.667,1322.3,2021.273,1322.8,2020.5,1323.23Z" transform="translate(-1339.748 -707.055)"/><path class="h" d="M2420.837,1646.211s3.849,3.511,3.1,6.005-4.221,4.158-4.691,7.207-2.346,4.71-4.034,4.71h-8.051s-1.243-2.145,1.757-2.791,4.125-4.229,3.949-7.556a61.462,61.462,0,0,1,.275-7.76l6.38-1.476Z" transform="translate(-1624.812 -963.242)"/><path class="h" d="M2226.381,1675.454s.69,7.991-1,8.821l-21.613-.044s0-2.494,3.47-3.05,9.569-2.585,10.6-7.114S2226.381,1675.454,2226.381,1675.454Z" transform="translate(-1477.536 -983.405)"/><path class="g" d="M2219.6,1268.089s1.138,14,2.475,30.838c1.821,22.867,4.009,50.956,4.227,56.276.374,9.239,1.878,24.019,1.878,24.019s3.575,3.511,10.694,2.032a238.384,238.384,0,0,0,8.172-43.424c.028-.366.055-.734.085-1.1,1.688-22.727,4.315-70.58,4.315-70.58Z" transform="translate(-1489.013 -688.892)"/><path class="h" d="M2219.6,1268.089s1.138,14,2.475,30.838l24.97,38.9c.028-.366.055-.734.085-1.1,1.688-22.727,4.315-70.58,4.315-70.58Z" transform="translate(-1489.013 -688.892)"/><path class="g" d="M2238.53,1255.128s20.546,50.716,34.056,74.551,17.733,30.486,17.733,30.486,7.741-3.049,8.445-5.128c0,0-5.167-46.014-14.214-57.23-5.112-6.324-9.522-20.4-9.3-27.055.382-11.475-3.927-24.773-3.927-24.773Z" transform="translate(-1502.738 -674.268)"/><path class="f" d="M2166.983,1282s-3.85,5.194-4.125,6.58-.613,6.325-.154,7.785,2.851-4.323,3.819-4.988-.6,2.271-.228,2.717,2.224-1.8,2.953-2.571.385-4.614,1.164-6.954S2166.983,1282,2166.983,1282Z" transform="translate(-1447.598 -700.384)"/><path class="k" d="M2193.256,1007.42s-5.183,48.261-5.646,49.636c-.1.3-.509,1.829-1.08,4.026-.825,3.137-1.969,7.65-3.063,11.937-1.65,6.481-3.432,12.1-3.432,12.1a4.546,4.546,0,0,1-2.67.344,2.825,2.825,0,0,1-1.985-1.21s.189-23.695,1.347-29.095,4.861-38.582,6.734-43.048S2193.256,1007.42,2193.256,1007.42Z" transform="translate(-1456.953 -501.306)"/><path class="v" d="M2201.591,1143.169c-.825,3.137-1.969,7.65-3.063,11.937a46.508,46.508,0,0,1-2.167-9.465c-1.042-7.974,2.161-25,2.161-25Z" transform="translate(-1472.013 -583.394)"/><path class="k" d="M2248.883,1080.005c-7.441,4.2-39.321,4.1-40.8.809-3.3-7.359-4.125-44.75-2.568-56.219,0,0,.8-17.626,2.568-16.85,11.777-5.409,30.836-.5,30.836-.5,5.139,1.513,4.7,13.257,6.132,29.75.185,2.123.391,4.339.619,6.627,1.014,10.174,2.491,21.885,4.732,34.226C2250.555,1078.663,2249.989,1079.392,2248.883,1080.005Z" transform="translate(-1478.252 -499.701)"/><path class="f" d="M2263.449,971.139c-.2,3.151-4.309,2.794-9.256,1.666s-3.151-4.042-3.151-4.042.071-2.238.385-4.925c.113-.973.255-2.013.443-3.025.088-.495.184-.979.3-1.449.646-2.774,9.874-.1,9.808.649C2261.8,962.034,2263.249,968.662,2263.449,971.139Z" transform="translate(-1511.58 -465.572)"/><path class="h" d="M2257.41,1013.956l-.39-4.356,5.472,1.034-2.107,3.885Z" transform="translate(-1516.144 -502.887)"/><path class="v" d="M2243.659,989.33l-3.269,4.974a7.236,7.236,0,0,0,2.838,5.279l4.471-4.163S2244.809,994.318,2243.659,989.33Z" transform="translate(-1504.086 -488.19)"/><path class="v" d="M2267,997.509s.927,3.324,2.717,4.851c0,0,6.984-1.878,8.648-5.453l-3.638-4.7S2274.542,995.763,2267,997.509Z" transform="translate(-1523.379 -490.279)"/><path class="t" d="M2263.86,967.384a17.133,17.133,0,0,1-10.6,2.252c.113-.973.255-2.013.443-3.025,1.215-.3,2.233-.481,2.233-.481Z" transform="translate(-1513.418 -471.37)"/><path class="f" d="M2259.081,913.275c-2.172,5.978-10.1,4.452-13.473,3.492-.952-.275-1.541-.5-1.541-.5-1.042-.473-1.375-2.293-1.272-4.592.178-4.551,1.977-10.977,3.008-12.525,1.551-2.329,4.124-4.7,11.824-1.4S2261.866,905.615,2259.081,913.275Z" transform="translate(-1505.817 -420.619)"/><path class="i" d="M2267.718,898.984c-2.428,1.98-7.641,5.643-7.641,5.643a9.444,9.444,0,0,0,1.29-2.662,2.694,2.694,0,0,0,.1-.9,4.977,4.977,0,0,1,.712-2.75c.316-.514.432-1.05.03-1.43-.66-.622-1.784-.05-2.521.456a1.489,1.489,0,0,1-1.625.041h0c-2.074-1.3.217-3.575-1.469-5.5s-8.98-2.159-8.686-3.349c-2.491-1.408-.921-6.6-.877-6.874a26.95,26.95,0,0,0,8.038-.8c3.622-.91,7.614,1.416,8.879,2.376a2,2,0,0,0-.2-.885,1.87,1.87,0,0,1,.55,1.174c.055.055.08.094.063.1a2.388,2.388,0,0,1,1.141.261s-.308-.1-.454.088a.191.191,0,0,1-.063.05C2269.8,887.446,2269.734,897.34,2267.718,898.984Z" transform="translate(-1508.515 -409.399)"/><path class="k" d="M2250.475,951.98s-.391.751-2.351.127c0,0-1.65-.523-1.375-1.391A5.643,5.643,0,0,1,2250.475,951.98Z" transform="translate(-1508.674 -460.186)"/><path class="h" d="M2247.085,1025.44s-4.366,55.179-4.306,59.777,4.84,9.459,4.84,9.459,3.806-4.169,4.548-8.565-2.107-60.1-2.107-60.1Z" transform="translate(-1505.818 -514.371)"/><path class="v" d="M2339.562,1155.9h0c-13.273-1.925-9.47-45.839-8.428-46.011s4.859,7.853,4.859,7.853l.363,1.779c1.015,10.174,2.491,21.885,4.732,34.226C2341.233,1154.563,2340.667,1155.291,2339.562,1155.9Z" transform="translate(-1568.93 -575.6)"/><path class="i" d="M2400.462,1328.416l-28.066,8.167a6.938,6.938,0,0,1-8.574-4.71l-3.539-12.162a6.938,6.938,0,0,1,4.71-8.574l28.064-8.167a6.938,6.938,0,0,1,8.577,4.707l3.539,12.162A6.94,6.94,0,0,1,2400.462,1328.416Z" transform="translate(-1590.814 -715.39)"/><path class="r" d="M2373.718,1312.531l3.574,12.3a6.96,6.96,0,0,0,4.8,4.744,6.86,6.86,0,0,0,2.313.245h0a6.855,6.855,0,0,0,1.485-.275l28.014-8.153a6.962,6.962,0,0,0,4.727-8.607l-3.574-12.3a6.963,6.963,0,0,0-8.607-4.727l-9.646,2.808-.761-2.626a2.3,2.3,0,0,0-2.841-1.559l-1.056.308-5.868,1.708-1.46.426a2.293,2.293,0,0,0-1.559,2.838l.764,2.626-5.59,1.625c-.22.063-.434.14-.644.223h0a6.966,6.966,0,0,0-4.155,4.82h0A6.9,6.9,0,0,0,2373.718,1312.531Zm21.723-13.553-10.023,2.931-.761-2.626a.855.855,0,0,1,.58-1.059l2.519-.731,4.617-1.347,1.248-.36a.827.827,0,0,1,.253-.033.855.855,0,0,1,.806.613Z" transform="translate(-1600.551 -709.294)"/><path class="f" d="M2422.24,1277.328s-.868,7.276.762,7.171,5.623-.885,5.9-2.139-3.058-7.1-3.058-7.1Z" transform="translate(-1635.765 -695.497)"/><path class="f" d="M2419.037,1282.71a6.746,6.746,0,0,0-1.355,2.772c-.107,1.221-.7,3.354-.144,3.492s1.582-2.656,1.582-2.656Z" transform="translate(-1632.353 -700.898)"/><path class="k" d="M2329,1012.64s7.047,1.688,12.621,12.393,9.974,32.3,12.649,38,4.675,22.8,4.675,22.8a2.613,2.613,0,0,1-1.851,1.16,8.808,8.808,0,0,1-2.255.146s-10.479-16.774-11.983-22.823c-.825-3.264-13.248-29.387-13.248-29.387Z" transform="translate(-1568.331 -505.091)"/><path class="f" d="M637.946,1660.605,636.89,1653l4.435-3.707,1.4,10.072Z" transform="translate(-341.509 -966.678)"/><path class="h" d="M646.358,1689.753H628.27a9.956,9.956,0,0,1,.511-4.848c.9-2.007,2.315-3.247,2.442-4.785a5.433,5.433,0,0,0,5.181,1.595,19.739,19.739,0,0,0,3.137,4.067C640.724,1686.631,646,1686.329,646.358,1689.753Z" transform="translate(-335.187 -989.031)"/><path class="m" d="M621.975,1290.743c-1.182,9.514-2.15,18.487-2.937,26.846-4.21,44.546-3.382,71.769-3.382,71.769s-.305.806-2.915.825a14.962,14.962,0,0,1-2.92-.313s-9.423-29.089-8.7-45.646a25.467,25.467,0,0,1,.737-5.359c2.26-8.469-8.368-40.859,3.184-52.922S622.52,1286.376,621.975,1290.743Z" transform="translate(-314.44 -699.535)"/><path class="l" d="M621.975,1290.748c-1.182,9.514-2.15,18.487-2.937,26.846l-17.914,26.637a25.457,25.457,0,0,1,.737-5.359c2.26-8.469-8.368-40.858,3.184-52.922S622.52,1286.382,621.975,1290.748Z" transform="translate(-314.44 -699.541)"/><path class="f" d="M730.361,960.305s-.434-2.175-.927-3.833c-.217-.734,1.3-5.557,2.346-6.148s3.775,2.653,3.005,5.145c-.4,1.281-1.05,5.45-1.05,5.45Z" transform="translate(-408.591 -459.859)"/><path class="f" d="M726.2,974.3s-.569-1.262-1.083-1.466-1.064-2.266-1.444-3.083c0,0,.366-.533,1,.154.39.418,1.257,1.65,1.257,1.65Z" transform="translate(-404.426 -473.851)"/><path class="f" d="M444.47,1001.549a9.5,9.5,0,0,0-.4,1.023v-.311c0-.765-2.865-4.933-4.042-5.194s-2.835,3.643-1.375,5.8c.756,1.1,2.6,4.9,2.6,4.9l3.047-1.573s.176-1.375.608-1.719.355-2.475.478-3.371C445.386,1001.109,444.88,1000.7,444.47,1001.549Z" transform="translate(-197.366 -493.791)"/><path class="f" d="M529.579,1655.749c-.256-2.436-.319-8.851-.319-8.851s6.536-2.09,6.294-.655a46.149,46.149,0,0,0-.861,10.545l-2.643,1.578Z" transform="translate(-263.474 -964.104)"/><path class="m" d="M561.641,1311.689s-25.251,69.23-30.222,99.244a5.026,5.026,0,0,1-3.3.528,3.69,3.69,0,0,1-3.1-1.991s-4.562-35.986,4.507-48.478c6.228-8.584-2.687-46.281,11.824-49.3S561.641,1311.689,561.641,1311.689Z" transform="translate(-259.564 -720.935)"/><path class="i" d="M536.19,1037.119h0a.522.522,0,0,0-.022-.088c-.146-.611-.308-1.21-.481-1.8h0a40.53,40.53,0,0,0-1.837-5.084,26.683,26.683,0,0,0-1.21-2.414l-.184-.322h0a7.181,7.181,0,0,0-2.884-3.123,8.645,8.645,0,0,0-4.752-.2,2.168,2.168,0,0,1,.907-.605,7.235,7.235,0,0,0-2.456,1.045c-11.631-2.6-10.952,13.85-10.174,17.579s-2.956,5.541-8.249,9.349c-10.078,7.278-9.9,15-9.9,15,.091.038.19.083.294.135.4-1,1.265-2.89,2.167-3.3a39.406,39.406,0,0,0-.968,3.907c1.534.847,3.66,2.156,5.967,3.635h0c3.088,1.974,6.492,4.248,9.223,6.093a6.236,6.236,0,0,1-.066-2.428l.869,2.695.115.352c1.741,1.18,3.115,2.126,3.814,2.609l.193.132.313.215c-.234-.952.784-3.435,2.491-6.564.115-.217.239-.44.366-.665.55-.99,1.166-2.032,1.829-3.107.239-.388.481-.775.731-1.171h0c.2-.319.4-.635.613-.957h0q.742-1.147,1.529-2.3c1.35-2,2.783-3.979,4.2-5.8a50.911,50.911,0,0,1,5.758-6.456c.055-.113.107-.228.154-.346a11.441,11.441,0,0,0,.624-1.991c.047-.206.091-.418.129-.627a27.238,27.238,0,0,0,.423-4.93,28,28,0,0,1-.06,4.969c-.033.275-.069.517-.11.748h0a9.711,9.711,0,0,1-.305,1.309,6.7,6.7,0,0,0,.734-1.13,7.887,7.887,0,0,0,.382-.844C537.735,1047.163,537.37,1041.98,536.19,1037.119Z" transform="translate(-238.598 -512.95)"/><path class="f" d="M608.571,1108.658c.041,0-3.256,2.395-6.049,2.06-2.629-.313-4.768-3.344-4.732-3.355,1.037-.371,1.127-1.889.165-8.2l.5.022,8.373.4s.2,2.588.55,5C607.663,1106.606,608.07,1108.509,608.571,1108.658Z" transform="translate(-313.159 -567.82)"/><path class="j" d="M608.56,1099.641s.2,2.588.55,5c-4.57.55-7.592-3.245-8.92-5.4Z" transform="translate(-314.9 -567.878)"/><path class="i" d="M585.276,1050.2a24.175,24.175,0,0,1-4-6.552c-.751-2.239-.847-10.939,7.9-11a11.756,11.756,0,0,1,5.1,1.1c2.046.982,5.137,3.3,3.239,11.18l-.4,2.632Z" transform="translate(-300.962 -519.597)"/><path class="k" d="M590.416,1175.226a35.468,35.468,0,0,1-24.572,3.146c-.162-.042-11.274-1.812-11.274-1.812.192-.522,1.628-9.1,1.815-9.577,2.425-6.264,6.861-40.251,10.567-41.928.946,1.031,3.649,1.735,5.964,1.531,2.665-.237,3.558-1.375,3.335-2.626,2.951,1.394,5.225,2.689,5.225,2.689C584.171,1130.688,590.416,1175.226,590.416,1175.226Z" transform="translate(-281.825 -585.801)"/><path class="f" d="M603.529,1061.329s-10.74,1.779-11.747-4.927-3.069-11,3.748-12.412,8.524.941,9.412,3.1S606.295,1060.694,603.529,1061.329Z" transform="translate(-308.01 -527.509)"/><path class="i" d="M592.721,1039.192s-1.776,8.307-6.129,10.144-6.492.916-6.492.916a12.943,12.943,0,0,0,3.063-8.191S589.952,1035.78,592.721,1039.192Z" transform="translate(-300.334 -523.605)"/><path class="w" d="M623.73,1040.409s2.475,1.43,3.253,3.058,1.556,5.109,2.563,4.837c0,0,1.427-5.678-1.521-8.334C624.9,1037.156,623.73,1040.409,623.73,1040.409Z" transform="translate(-331.967 -524.075)"/><path class="g" d="M664.219,985.793a6.891,6.891,0,0,0-1.925-.594,5.975,5.975,0,0,0-1.688.179s-3.025,18.836-3.256,19.834-13,15.4-16.441,15.33c-3.11-.052-6.795,2.348-7.479,2.81,0,0,7.243,15.313,7.6,18.19.393,3.129,4.144,51.332,4.144,51.332s-.223,2.241,3.965,1.037,5.224-2.2,5.224-2.2-3.85-37.947-4.655-49.748a22.718,22.718,0,0,0-.737-4.4,4.455,4.455,0,0,1,.723-3.789c5.3-7.273,13.661-19.053,14.126-21.558C664.527,1008.528,664.219,985.793,664.219,985.793Z" transform="translate(-339 -485.193)"/><path class="h" d="M537.268,1689.753H519.18a9.956,9.956,0,0,1,.511-4.848c.908-2.007,2.315-3.247,2.445-4.785a5.427,5.427,0,0,0,5.178,1.595,19.736,19.736,0,0,0,3.137,4.067C531.634,1686.631,536.9,1686.329,537.268,1689.753Z" transform="translate(-256.094 -989.031)"/><path class="g" d="M499.362,1074.194c-.61-3.751-8.392-18.814-8.392-18.814s-4.922-1.471-8.159-.3-19.993-8.288-20.53-9.16-9.511-17.6-9.511-17.6a2.059,2.059,0,0,0-1.925.19,2.18,2.18,0,0,0-1.185,1.815s6.927,21.052,8.769,24.311c1.1,1.963,10.449,8.8,17.695,13.922a4.54,4.54,0,0,1,1.881,4.32c-.973,7.2-1.221,11.255-2.34,23.607-.929,10.248-1.284,30.091-1.284,30.091s8.1,2.8,13.7,3.176,6.814-5.524,6.814-5.524S499.989,1078.052,499.362,1074.194Z" transform="translate(-205.762 -516.357)"/><path class="k" d="M624.59,1093.559a4.789,4.789,0,0,0,2.846.55c1.053-.16,1.3-1.411,1.3-1.411a4.149,4.149,0,0,0-1.906,0,8.072,8.072,0,0,0-2.236.861Z" transform="translate(-332.591 -563.055)"/><path class="f" d="M1866.36,600.83s-5.026-8.931,0-10.749,7.3-.14,7.537,1.892-1.925,10.053-1.925,10.053Z" transform="translate(-1231.285 -198.162)"/><path class="m" d="M1697.086,682.41A162.4,162.4,0,0,1,1671.892,685a140.261,140.261,0,0,1-19.364-.872c-1.523-.173-2.986-.371-4.4-.583-14.849-2.249-23.029-6.239-23.029-6.239s13.556-28.377,24.508-27.289c12.861,1.27,34.625,12.8,36.783,9.572,2.436-3.644,4.477-34.886,4.477-34.886,5.695-3.9,9.1.212,9.1.212S1711.1,679.872,1697.086,682.41Z" transform="translate(-1057.986 -222.607)"/><path class="l" d="M1760.5,797.888a162.37,162.37,0,0,1-25.193,2.588,140.249,140.249,0,0,1-19.364-.872c-3.418-10.87-5.876-21.973,1-15.278C1729.064,796.12,1760.5,797.888,1760.5,797.888Z" transform="translate(-1121.396 -338.086)"/><path class="h" d="M1620.872,1660.673s-.974,11.274,1.411,12.453l30.522-.061s0-3.522-4.9-4.306-13.512-3.652-14.97-10.042S1620.872,1660.673,1620.872,1660.673Z" transform="translate(-1054.777 -971.767)"/><path class="g" d="M1600.532,1082.487c-.151,7.375-.506,14.983-1.2,21.822-3.3,32.447-4.455,71.653-4.927,79.212-.825,13.119-3.412,34.08-3.412,34.08s-5.142,4.881-15.162,2.552c0,0-8.3-30.189-10.174-61.979l-.083-1.57c-.215-4.2-.44-9.009-.671-14.192-1.526-34.71-3.184-86.271-3.184-86.271l38.293-8.992S1600.91,1064.1,1600.532,1082.487Z" transform="translate(-1012.033 -530.112)"/><path class="h" d="M1600.569,1082.487c-9.7,16.743-28.2,47.593-35.615,59.925-1.526-34.71-3.184-86.271-3.184-86.271l38.293-8.992S1600.946,1064.1,1600.569,1082.487Z" transform="translate(-1012.07 -530.112)"/><path class="f" d="M1329.231,1057.7s-6.231,7.328-6.792,9.349-1.559,9.349-1.023,11.549,4.674-6.135,6.184-7.023-1.13,3.3-.616,4.015,3.49-2.453,4.65-3.523,1.048-6.814,2.439-10.212S1329.231,1057.7,1329.231,1057.7Z" transform="translate(-837.696 -537.76)"/><path class="h" d="M1333.04,1619.368s-5.433,4.95-4.372,8.477,5.961,5.871,6.624,10.174,3.3,6.654,5.695,6.654h11.37s1.755-3.025-2.475-3.943-5.838-5.973-5.571-10.667a82.359,82.359,0,0,0-.4-10.958l-9.008-2.087Z" transform="translate(-842.965 -943.282)"/><path class="g" d="M1436.852,1051.947s-35.848,76.7-54.926,110.345-25.023,43.044-25.023,43.044-10.93-4.3-11.923-7.24c0,0,7.295-64.971,20.073-80.81,7.218-8.948,15.7-35.8,16.094-45.2s8.772-31.809,8.772-31.809Z" transform="translate(-854.892 -525.131)"/><path class="m" d="M1548.478,802.545a62.119,62.119,0,0,1-34.432,8.645c-8.854-.385-26.417-2.9-29.252-9.938-.666-1.65-.179-3.753.825-6.973,2.593-8.37,8.631-24.311,6.808-59.65a58.1,58.1,0,0,1,.237-9.275c1.9-17.409,11.876-27.718,21.52-31.072,23.516-8.219,31.347,3.168,31.347,3.168s10.394,8.235,11.962,25.421C1560.626,757.234,1548.478,802.545,1548.478,802.545Z" transform="translate(-956.038 -272.112)"/><path class="f" d="M1617.52,637.481s10.79,6.561,22.493,4.7c0,0,2.315-.589,1.177-3.3a35.136,35.136,0,0,0,1.039-3.621,54.837,54.837,0,0,0,1.339-5.912l-6.641-6.982-6.291-6.671C1628.9,631.638,1617.52,637.481,1617.52,637.481Z" transform="translate(-1052.49 -217.299)"/><path class="x" d="M1661.56,637.67s3.613,9.66,12.6,13.518c1.026-3.751,1.694-7.672,1.694-7.672l-7-5.224Z" transform="translate(-1084.42 -233.228)"/><path class="f" d="M1677.069,575.312s-20.6,2.574-22.042-10.083-5.079-20.849,8.01-23.026,16.2,2.37,17.728,6.481S1682.39,574.317,1677.069,575.312Z" transform="translate(-1078.539 -163.603)"/><path class="i" d="M1631.451,519.483c-.179-.22-.6-.41-1.551-.5a3.87,3.87,0,0,1,1.8-.435c.25-1.32,1.042-3.641,3.349-4.125a2.86,2.86,0,0,0-1.466,2.013c2.75-2.615,8.486-4.378,24.126-2.546,20.623,2.414,13.3,15.4,10.565,16.87s-9.311-3.1-14.3-2.9-6.223,7.378-7.953,8.3-1-.8-3.247-1.925-2.612,2.662-2.043,5.153-2.7,5.626-2.7,5.626l-3.049-3.542c-3.05-3.544-5.5-18.148-3.935-21.192Z" transform="translate(-1061.466 -142.941)"/><path class="g" d="M1771.475,589.5l-34.966.311-.239-5.257,34.856-2.7Z" transform="translate(-1138.587 -192.757)"/><path class="g" d="M1858.765,581.346l-38.07.55-.434-9.564,37.96-2.942Z" transform="translate(-1199.482 -183.724)"/><path class="h" d="M1967.449,573.991l-32.1.039-.586-12.91,31.971-2.909Z" transform="translate(-1282.497 -175.618)"/><path class="h" d="M2048.375,570.328h0a1.79,1.79,0,0,0,1.71-1.873l-.753-16.586a1.8,1.8,0,0,0-1.873-1.713h0a1.8,1.8,0,0,0-1.713,1.875l.754,16.586A1.8,1.8,0,0,0,2048.375,570.328Z" transform="translate(-1362.963 -169.777)"/><path class="g" d="M1731.849,595.129h0a1.6,1.6,0,0,1-1.666-1.521L1730,589.3a1.6,1.6,0,0,1,1.521-1.666h0a1.595,1.595,0,0,1,1.666,1.523l.2,4.3A1.6,1.6,0,0,1,1731.849,595.129Z" transform="translate(-1134.037 -196.951)"/><path class="l" d="M1488.58,883.966c2.593-8.37,8.631-24.31,6.808-59.65a58.113,58.113,0,0,1,.237-9.275h0c7.738-.666,19.57,7.7,19.57,7.7S1507.911,867.159,1488.58,883.966Z" transform="translate(-959.005 -361.799)"/><path class="m" d="M1417.145,694.91s-19.845,3.41-30.2,16.045-27,30.451-30.935,36.69-14.865,48.7-14.865,48.7.723,1.375,3.737,2.159a7.1,7.1,0,0,0,4.977-.418s14.477-24.781,19.927-37.154c2.263-5.145,41.417-25.512,56.136-23.4C1431.707,738.356,1417.145,694.91,1417.145,694.91Z" transform="translate(-852.115 -274.729)"/><path class="f" d="M1863.54,572.672s4.268,2.612,6.822,1.507,2.326-2.115,2.326-2.115S1864.975,569.923,1863.54,572.672Z" transform="translate(-1230.861 -185.087)"/><path class="h" d="M1483.919,742.681s-8.708,54.995-70.5,70.993l-6.732,13.279,11.824,2s70.347-20.381,69.4-87.244Z" transform="translate(-899.633 -308.66)"/><path class="h" d="M1675.121,713.33l-2.851.281v4.127l4.2,4.369,3.995-.973V715.4l-2.873-2.073Z" transform="translate(-1092.185 -288.084)"/><path class="l" d="M1618.014,673.57s-2.75.622-9.074,5.868c0,0,6.278,13.322,19.523,14.917,0,0-.212-6.181.745-9.852C1629.206,684.5,1618.71,680.744,1618.014,673.57Z" transform="translate(-1046.269 -259.257)"/><path class="l" d="M1682.64,703.665s6.462,3.432,6.94,8.774c0,0,2.475-3.913,1.755-6.621A22.275,22.275,0,0,0,1688.4,700S1688.624,703.267,1682.64,703.665Z" transform="translate(-1099.704 -278.419)"/></g></svg>