<svg xmlns="http://www.w3.org/2000/svg" width="61.941" height="61.94" viewBox="0 0 61.941 61.94"><defs><style>.a{fill:none;stroke:#4643ea;stroke-miterlimit:10;stroke-width:2px;}.b{fill:#4643ea;}</style></defs><g transform="translate(1 1)"><g transform="translate(0 0)"><rect class="a" width="59.941" height="59.94" rx="29.97"/><rect class="b" width="6.205" height="20.033" transform="translate(16.379 23.293)"/><path class="b" d="M14.44,16.572a3.7,3.7,0,1,0-3.67-3.7A3.7,3.7,0,0,0,14.44,16.572Z" transform="translate(5.01 4.091)"/><path class="b" d="M23.563,25.248c0-2.819,1.291-4.488,3.78-4.488s3.37,1.575,3.37,4.488v10.52h6.174v-12.6c0-5.37-3.04-7.969-7.292-7.969a6.961,6.961,0,0,0-6.032,3.307V15.736H17.61V35.768h5.953Z" transform="translate(8.943 7.557)"/></g></g></svg>