<svg xmlns="http://www.w3.org/2000/svg" xmlns:xlink="http://www.w3.org/1999/xlink" width="69.736" height="77.07" viewBox="0 0 69.736 77.07"><defs><style>.a{fill:url(#a);}.b{fill:url(#b);}.c{fill:aqua;}</style><linearGradient id="a" x1="0.302" y1="0.24" x2="0.734" y2="0.873" gradientUnits="objectBoundingBox"><stop offset="0" stop-color="#2514d6"/><stop offset="0.48" stop-color="#4643ea"/><stop offset="0.57" stop-color="#4e45ec"/><stop offset="0.72" stop-color="#664cf1"/><stop offset="0.91" stop-color="#8b57f9"/><stop offset="1" stop-color="#9f5dfd"/></linearGradient><linearGradient id="b" x1="0.372" y1="0.055" x2="0.623" y2="0.912" gradientUnits="objectBoundingBox"><stop offset="0" stop-color="#2514d6"/><stop offset="0.17" stop-color="#3c35e4"/><stop offset="0.27" stop-color="#4643ea"/><stop offset="0.39" stop-color="#604bf0"/><stop offset="0.54" stop-color="#7b53f5"/><stop offset="0.69" stop-color="#8f58fa"/><stop offset="0.84" stop-color="#9b5cfc"/><stop offset="1" stop-color="#9f5dfd"/></linearGradient></defs><g transform="translate(-232.07 -199.688)"><path class="a" d="M257.462,240.458l-1.6-.793c-.386-.19-.779-.378-1.17-.566a58.273,58.273,0,0,0-11.389-4.387,1.843,1.843,0,0,0-1.176-.026,2.322,2.322,0,0,0-.549,1.259L237,235.113a43.183,43.183,0,0,1,5.662-16.141,40.883,40.883,0,0,1,21.9-17,57.057,57.057,0,0,1,8.523-2.151,5.748,5.748,0,0,1,4.487.779c1.864,1.344,2.214,3.673,2.522,5.728l.066.44c.412,2.682.808,5.408,1.193,8.04l.377,2.62q.379,2.592.771,5.178c.046.309.1.617.164.933l.436,2.286-2.277.439a38.159,38.159,0,0,0-13.723,5.516,42.144,42.144,0,0,0-8.454,7.35Zm-14.574-10.493a8.4,8.4,0,0,1,1.472.219,60.636,60.636,0,0,1,11.988,4.554,46.26,46.26,0,0,1,8.195-6.856,42.627,42.627,0,0,1,13.176-5.706q-.306-2.031-.6-4.071l-.383-2.618c-.383-2.628-.779-5.345-1.188-8.01l-.069-.453a8.235,8.235,0,0,0-.644-2.644,1.334,1.334,0,0,0-.308-.027,3.738,3.738,0,0,0-.643.063,52.246,52.246,0,0,0-7.82,1.973,34.483,34.483,0,0,0-23.173,23.576Z" transform="translate(-4.372 0)"/><path class="b" d="M382.543,436.5l-2.341-4.024,1.075-.69c6.528-4.19,13.278-8.515,18.749-13.851.152-.147.326-.361.315-.47-.1-.856-1.786-2.3-5.022-4.294-.34-.212-.65-.4-.906-.566-2.378-1.538-4.888-3.021-7.473-4.407-1.585-.856-3.226-1.7-4.883-2.491l-2.777-1.34,2.046-2.308a46.816,46.816,0,0,1,9.39-8.153,42.8,42.8,0,0,1,15.391-6.185c1.32-.254,2.67-.453,4.013-.579a51.905,51.905,0,0,1,11.718.239c.31.04.666.076,1.052.113,3.08.313,9.49.961,9.456,6.436h0c-.034,5.209-.124,10.51-.211,15.633l-.091,5.673c-.02,1.438-.042,2.875-.056,4.311l-.012,1.019c-.017,1.675-.243,4.083-1.993,5.619-.048.042-.126.113-.226.188a3.3,3.3,0,0,1-.3.21,7.092,7.092,0,0,1-4.618.772c-.181-.015-.362-.029-.542-.041-1.925-.126-3.921-.178-5.9-.139h-.136c-.113,0-.206.007-.3.008l-.374.011h-.591q-.371.011-.741.032h-.1l-.113.006c-.22.007-.44.021-.66.035-.028,0-.085.006-.142.007h-.068c-.164.007-.327.02-.49.034H414.5l-.1.007c-.138.006-.273.018-.41.031h-.068c-.191.012-.38.028-.572.045l-.172.017c-.324.028-.644.059-.968.089l-.214.02c-.322.031-.641.067-.964.106l-.384.048c-.469.051-.906.113-1.341.172l-.46.065-.185.027-.158.024c-.036.007-.073.011-.113.016-.247.034-.491.071-.738.113l-.113.017-.128.02-.316.053c-.363.06-.733.125-1.1.19h-.026l-.113.02-.194.037c-.352.062-.7.131-1.052.2-.785.159-1.5.311-2.2.471-.275.062-.54.123-.805.191l-.732.181c-.334.079-.671.166-1.005.258-.374.1-.713.185-1.054.281-.359.1-.685.19-1.012.289l-.044.012c-.286.079-.573.166-.856.254l-.1.031-.215.066c-.263.078-.538.165-.812.256-.32.1-.616.2-.906.3l-.283.094c-.276.093-.556.19-.832.286-.354.12-.679.239-1,.357l-.185.068c-.236.086-.473.173-.708.262-.3.113-.575.216-.858.326s-.559.22-.835.332c-.351.138-.679.271-1,.408s-.613.255-.906.383c-.216.092-.4.172-.595.257-.243.105-.47.206-.7.31-.669.3-1.345.616-2.013.939C384.154,435.672,383.337,436.082,382.543,436.5Zm31.9-9.159ZM414.444,427.338Zm-27.516-24.412q1.124.576,2.218,1.169c2.694,1.443,5.322,2.992,7.8,4.6.226.147.5.316.812.506,2.718,1.67,6.813,4.19,7.21,7.746a5.1,5.1,0,0,1-1.689,4.321c-1.426,1.389-2.918,2.706-4.46,3.963.313-.084.645-.169.977-.248l.688-.17c.3-.077.6-.147.906-.216.732-.168,1.485-.329,2.294-.492.376-.078.769-.155,1.163-.226l.227-.043.138-.026c.375-.066.753-.133,1.132-.195l.439-.072.1-.016c.3-.053.6-.1.906-.139h0l.086-.013.362-.054.144-.02.249-.035c.513-.073,1-.138,1.492-.191l.346-.043c.407-.05.807-.1,1.212-.133l.113-.009c.322-.032.64-.062.962-.089l.207-.022c.211-.017.419-.035.631-.05s.382-.032.566-.041c.052,0,.1-.007.153-.009h.037c.2-.017.405-.032.608-.041h.113c.267-.016.521-.032.773-.041h.12q.446-.026.892-.038h.113c.1,0,.195-.008.293-.008h.1l.557-.017h.418c2.1-.038,4.216.016,6.266.148.207.014.417.031.625.049a4.138,4.138,0,0,0,1.715-.052c.1-.113.369-.566.386-2.151l.011-1.013q.023-2.159.057-4.327l.091-5.685c.086-5.11.176-10.394.209-15.583h0c.008-1.236-3.554-1.6-5.265-1.771-.435-.044-.835-.085-1.183-.13a47.34,47.34,0,0,0-10.664-.221c-1.2.113-2.407.291-3.586.517a38.163,38.163,0,0,0-13.723,5.516,41.138,41.138,0,0,0-6.347,5.1Zm21.214,20.412h0Zm18.91-.773-.064.045Z" transform="translate(-130.541 -166.03)"/><path class="c" d="M240.328,513.819c-5.155,0-6-6.048-6.416-8.982-.054-.385-.1-.742-.157-1.055A122.3,122.3,0,0,1,232.07,483.2c0-2.123.05-4.269.149-6.4.01-.2.018-.418.027-.635.018-.477.039-.975.071-1.472l.006-.1a16.888,16.888,0,0,1,.333-2.57,6.29,6.29,0,0,1,2.6-4.2,6.025,6.025,0,0,1,4.728-.575,62.107,62.107,0,0,1,12.32,4.711c.416.2.837.4,1.251.6,1.7.816,3.4,1.686,5.043,2.574,2.694,1.443,5.322,2.992,7.8,4.6.226.147.5.316.812.506,2.718,1.67,6.813,4.19,7.21,7.746a5.1,5.1,0,0,1-1.689,4.321h0c-5.811,5.662-12.764,10.125-19.487,14.437h0l-1.65,1.06c-1.6,1.019-3.2,2.038-4.776,3.01-.282.177-.622.416-.981.668-1.423,1-3.2,2.252-5.236,2.337C240.513,513.817,240.416,513.819,240.328,513.819Zm-3.349-39-.006.1c-.033.482-.052.962-.07,1.422-.009.226-.018.453-.027.667-.1,2.06-.146,4.132-.146,6.16A118.365,118.365,0,0,0,238.343,503c.061.353.113.756.179,1.19.246,1.753.716,5,1.892,4.967a7.723,7.723,0,0,0,2.746-1.49c.4-.279.805-.566,1.2-.815,1.513-.939,3.05-1.908,4.585-2.889l1.789-1.148c6.527-4.19,13.276-8.514,18.747-13.848h0c.154-.149.328-.363.317-.472-.1-.856-1.786-2.3-5.022-4.294-.34-.212-.65-.4-.906-.566-2.378-1.538-4.888-3.021-7.473-4.407-1.585-.856-3.226-1.7-4.883-2.491-.41-.2-.8-.391-1.193-.574a58.277,58.277,0,0,0-11.389-4.387,1.843,1.843,0,0,0-1.177-.026,2.323,2.323,0,0,0-.549,1.259A13.063,13.063,0,0,0,236.979,474.82Z" transform="translate(0 -237.061)"/></g></svg>