<svg xmlns="http://www.w3.org/2000/svg" xmlns:xlink="http://www.w3.org/1999/xlink" width="396.999" height="63.165" viewBox="0 0 396.999 63.165"><defs><style>.a{fill:url(#a);}.b{fill:url(#b);}.c{fill:url(#c);}.d{fill:#2b0082;opacity:0.7;}.e{fill:url(#d);}.f{fill:url(#e);}.g{fill:url(#f);}.h{fill:url(#g);}.i{fill:url(#h);}.j{fill:url(#i);}.k{fill:url(#j);}.l{fill:url(#k);}.m{fill:url(#l);}.n{fill:url(#m);}.o{fill:url(#n);}.p{fill:url(#o);}.q{fill:url(#p);}.r{fill:url(#q);}.s{fill:url(#r);}.t{fill:url(#s);}</style><linearGradient id="a" x1="0.035" y1="0.097" x2="0.693" y2="0.682" gradientUnits="objectBoundingBox"><stop offset="0" stop-color="#2514d6"/><stop offset="0.48" stop-color="#4643ea"/><stop offset="0.57" stop-color="#4e45ec"/><stop offset="0.72" stop-color="#664cf1"/><stop offset="0.91" stop-color="#8b57f9"/><stop offset="1" stop-color="#9f5dfd"/></linearGradient><linearGradient id="b" x1="-0.107" y1="0.488" x2="1.181" y2="0.514" gradientUnits="objectBoundingBox"><stop offset="0" stop-color="#2514d6"/><stop offset="0.18" stop-color="#2e21dc"/><stop offset="0.51" stop-color="#4643ea"/><stop offset="0.55" stop-color="#4f46ec"/><stop offset="0.75" stop-color="#7a52f5"/><stop offset="0.91" stop-color="#955afb"/><stop offset="1" stop-color="#9f5dfd"/></linearGradient><linearGradient id="c" x1="-0.098" y1="-0.086" x2="0.63" y2="0.642" gradientUnits="objectBoundingBox"><stop offset="0" stop-color="#2514d6"/><stop offset="0.13" stop-color="#352be0"/><stop offset="0.27" stop-color="#423de7"/><stop offset="0.37" stop-color="#4643ea"/><stop offset="0.52" stop-color="#5748ee"/><stop offset="0.83" stop-color="#8355f7"/><stop offset="1" stop-color="#9f5dfd"/></linearGradient><linearGradient id="d" x1="0.134" y1="-0.083" x2="0.9" y2="1.167" gradientUnits="objectBoundingBox"><stop offset="0" stop-color="#2514d6"/><stop offset="0.39" stop-color="#4643ea"/><stop offset="0.5" stop-color="#4d45ec"/><stop offset="0.66" stop-color="#624bf0"/><stop offset="0.86" stop-color="#8355f7"/><stop offset="1" stop-color="#9f5dfd"/></linearGradient><linearGradient id="e" x1="0.167" y1="0.5" x2="1.167" y2="0.5" gradientUnits="objectBoundingBox"><stop offset="0" stop-color="#2514d6"/><stop offset="0.14" stop-color="#2819d8"/><stop offset="0.31" stop-color="#3227de"/><stop offset="0.48" stop-color="#423ee8"/><stop offset="0.51" stop-color="#4643ea"/><stop offset="0.66" stop-color="#654cf1"/><stop offset="0.89" stop-color="#8f58fa"/><stop offset="1" stop-color="#9f5dfd"/></linearGradient><linearGradient id="f" x1="0.35" y1="-0.189" x2="0.658" y2="1.304" gradientUnits="objectBoundingBox"><stop offset="0" stop-color="#2514d6"/><stop offset="0.17" stop-color="#3c35e4"/><stop offset="0.27" stop-color="#4643ea"/><stop offset="0.39" stop-color="#604bf0"/><stop offset="0.54" stop-color="#7b53f5"/><stop offset="0.69" stop-color="#8f58fa"/><stop offset="0.84" stop-color="#9b5cfc"/><stop offset="1" stop-color="#9f5dfd"/></linearGradient><linearGradient id="g" x1="-0.101" y1="0.975" x2="1.042" y2="-0.362" gradientUnits="objectBoundingBox"><stop offset="0" stop-color="#4643ea"/><stop offset="0.01" stop-color="#434aeb"/><stop offset="0.09" stop-color="#3474ef"/><stop offset="0.17" stop-color="#269af4"/><stop offset="0.26" stop-color="#1ab9f7"/><stop offset="0.36" stop-color="#10d3fa"/><stop offset="0.46" stop-color="#09e7fc"/><stop offset="0.58" stop-color="#04f4fe"/><stop offset="0.74" stop-color="#01fdff"/><stop offset="1" stop-color="aqua"/></linearGradient><linearGradient id="h" x1="-0.696" y1="0.996" x2="1.631" y2="-0.399" gradientUnits="objectBoundingBox"><stop offset="0" stop-color="#4643ea"/><stop offset="0.04" stop-color="#3a64ee"/><stop offset="0.09" stop-color="#2c88f2"/><stop offset="0.14" stop-color="#20a8f5"/><stop offset="0.21" stop-color="#16c4f8"/><stop offset="0.28" stop-color="#0edafb"/><stop offset="0.36" stop-color="#08ebfd"/><stop offset="0.46" stop-color="#03f6fe"/><stop offset="0.6" stop-color="#01fdff"/><stop offset="1" stop-color="aqua"/></linearGradient><linearGradient id="i" x1="0.5" y1="-1.495" x2="0.5" y2="5.881" xlink:href="#f"/><linearGradient id="j" x1="0.499" y1="-1.461" x2="0.499" y2="5.746" xlink:href="#f"/><linearGradient id="k" x1="0.5" y1="-1.428" x2="0.5" y2="5.65" xlink:href="#f"/><linearGradient id="l" x1="0.5" y1="-2.419" x2="0.5" y2="7.392" xlink:href="#f"/><linearGradient id="m" x1="0.5" y1="-1.865" x2="0.5" y2="5.521" xlink:href="#f"/><linearGradient id="n" x1="0.5" y1="-1.596" x2="0.5" y2="5.68" xlink:href="#f"/><linearGradient id="o" x1="0.5" y1="-1.591" x2="0.5" y2="5.605" xlink:href="#f"/><linearGradient id="p" x1="0.5" y1="-2.59" x2="0.5" y2="7.239" xlink:href="#f"/><linearGradient id="q" x1="0.5" y1="-2.628" x2="0.5" y2="7.208" xlink:href="#f"/><linearGradient id="r" x1="0.5" y1="-1.98" x2="0.5" y2="6.069" xlink:href="#f"/><linearGradient id="s" x1="0.5" y1="-2.682" x2="0.5" y2="7.159" xlink:href="#f"/></defs><path class="a" d="M114.462,77.91c.062,2.124-2.646,2.5-4.157,3.16a52.69,52.69,0,0,0-6.17,3.213A55.786,55.786,0,0,0,91.212,94.868a42.29,42.29,0,0,0-4.544,6.1,65.669,65.669,0,0,0-3.311,7.071c-1.151,2.511-3.445.164-3.885-1.534a60.576,60.576,0,0,1-1.442-8.058c-1.092-9.251-.164-19.08,4.767-27.174a33.442,33.442,0,0,1,18.031-13.962,47.164,47.164,0,0,1,7.127-1.8c3.229-.551,3.4,1.77,3.8,4.367.475,3.095.918,6.189,1.374,9.287.223,1.511.443,3.019.675,4.531A34.064,34.064,0,0,1,114.462,77.91Z" transform="translate(-77.581 -55.431)"/><path class="b" d="M116.347,102.1c-8.615,2.816-16.867,8.96-22.65,15.873a40.65,40.65,0,0,0-4.232,6.065c-.58,1.023-1.111,2.078-1.587,3.154a25.725,25.725,0,0,1-1.272,3.223,1.519,1.519,0,0,1-2.2.5c-1.124-.606-1.416-1.806-1.675-2.95a69.98,69.98,0,0,1-1.39-8.238c-1.02-9.7.252-20,5.983-28.128C92.4,84.389,100.316,80,108.794,78.071c2.114-.479,5.327-1.616,5.963,1.344.6,2.8.875,5.7,1.292,8.524.367,2.511.731,5.022,1.111,7.54C117.442,97.341,118.927,101.259,116.347,102.1Z" transform="translate(-79.87 -70.233)"/><path class="c" d="M116.347,105.5c-8.615,2.816-16.867,8.96-22.65,15.87a41,41,0,0,0-4.232,6.078q-.869,1.538-1.587,3.157a26.758,26.758,0,0,1-1.272,3.223,1.519,1.519,0,0,1-2.2.5c-1.124-.606-1.416-1.81-1.675-2.95a69.973,69.973,0,0,1-1.39-8.251c-1.02-9.7.252-20,5.983-28.128,5.068-7.212,12.989-11.605,21.466-13.529,2.114-.479,5.327-1.619,5.963,1.344.6,2.8.875,5.7,1.292,8.524.367,2.511.731,5.019,1.111,7.54C117.442,100.739,118.927,104.653,116.347,105.5Z" transform="translate(-79.87 -72.516)"/><path class="d" d="M143.9,112.389c-.026,4.288-.1,8.573-.17,12.857q-.056,3.442-.108,6.884c0,.7,0,1.413-.026,2.118,0,.452,0,.9-.016,1.357,0,.747.072.911-.675,1.144-1.033.328-2.485-.062-3.554-.111-1.216-.059-2.432-.079-3.652-.066a68.008,68.008,0,0,0-7.212.466,72.923,72.923,0,0,0-14.015,3.1,74.036,74.036,0,0,0-12.221,5.245,65.75,65.75,0,0,0-5.714,3.465c-.918.62-1.7,1.311-2.875.908a2.986,2.986,0,0,1-1.724-1.944c-.679-2.033.413-4.917.915-6.9a62.492,62.492,0,0,1,2.114-6.77,53.563,53.563,0,0,1,6.773-12.7A38.026,38.026,0,0,1,123.1,106.6c.118.8.233,1.593.351,2.39a40.52,40.52,0,0,1,11.172-.479,49.975,49.975,0,0,1,6.075.938C142.3,109.777,143.914,110.475,143.9,112.389Z" transform="translate(-87.059 -89.825)"/><path class="e" d="M140.873,115.941c-.036,5.616-.144,11.231-.233,16.844q-.059,3.423-.092,6.839a3.469,3.469,0,0,1-.859,2.777c-1.046,1-2.373.728-3.682.656a72.781,72.781,0,0,0-41.28,10.389c-1.193.728-2.318,1.567-3.511,2.295a2.274,2.274,0,0,1-1.81.452c-4.127-.934-1.279-8.274-.623-10.658,3.082-10.943,9.238-21.565,18.922-27.892a35.6,35.6,0,0,1,16-5.573,43.056,43.056,0,0,1,9.766.2C135.795,112.578,140.909,112.6,140.873,115.941Z" transform="translate(-84.031 -93.377)"/><path class="f" d="M143.607,142.908c-.072,4.59-.151,9.16-.207,13.743-.023,1.823.3,4.134-1.79,4.95a8.13,8.13,0,0,1-3.318.029q-2.19-.121-4.39-.1a72.338,72.338,0,0,0-30.154,7.173,69.809,69.809,0,0,0-6.422,3.485q-1.564.957-3.072,2.006a2.468,2.468,0,0,1-1.839.629c-1.528-.21-.9-1.246-.554-2.439a60.578,60.578,0,0,1,2.229-6.252c3.606-8.605,9.405-16.539,17.483-21.43a35.8,35.8,0,0,1,15.89-5.013,43.148,43.148,0,0,1,8.822.275C138.5,140.259,142.86,140.25,143.607,142.908Z" transform="translate(-86.867 -111.998)"/><path class="g" d="M144.012,146.293c-.075,4.59-.154,9.205-.2,13.808-.02,1.895-.374,3.868-2.695,4-2.587.151-5.268-.3-7.868-.229a72.628,72.628,0,0,0-29.272,7.258,69.724,69.724,0,0,0-6.429,3.518c-1.311.8-3.088,2.75-4.731,2.492-1.518-.243-.328-1.947,0-2.95a59.3,59.3,0,0,1,2.524-6.439c3.793-8.2,9.655-15.667,17.617-20.161a35.989,35.989,0,0,1,15.591-4.5,43.835,43.835,0,0,1,8.242.328C138.95,143.69,143.235,143.687,144.012,146.293Z" transform="translate(-87.288 -114.307)"/><path class="d" d="M110.889,151.152c-5.186,5.058-11.549,9.041-17.617,12.939q-2.295,1.485-4.639,2.931c-1.252.78-2.882,2.252-4.432,2.318-3.278.138-3.5-4.75-3.9-7.061a108.575,108.575,0,0,1-1.311-23.1c.138-2.983.02-7.445,4.288-6.448A52.667,52.667,0,0,1,93.622,136.7a102.7,102.7,0,0,1,12.058,6.652C107.732,144.674,114.1,148.012,110.889,151.152Z" transform="translate(-78.411 -107.292)"/><path class="h" d="M109.757,154.552c-5.186,5.058-11.549,9.038-17.617,12.939q-2.295,1.478-4.639,2.931c-1.252.78-2.882,2.252-4.432,2.318-3.278.138-3.5-4.75-3.9-7.061a108.364,108.364,0,0,1-1.311-23.1c.138-2.986.02-7.445,4.288-6.448a52.75,52.75,0,0,1,10.34,3.963,102.982,102.982,0,0,1,12.061,6.655C106.6,148.071,112.966,151.4,109.757,154.552Z" transform="translate(-77.65 -109.578)"/><path class="i" d="M100.193,170.592a86.2,86.2,0,0,1-9.766,9.369q-2.95,2.524-5.976,4.944c-1.721,1.383-3.685.629-4.376-1.439-1.374-4.1-1.7-8.76-2.046-13.034a102.751,102.751,0,0,1-.38-15.2,153.274,153.274,0,0,1,14.88,6.393C95.177,162.983,103.759,166.4,100.193,170.592Z" transform="translate(-77.501 -122.513)"/><path class="j" d="M375.948,86.158H360.566v9.11h14.926v7.248H360.566v14.818H353V78.92h22.948Z" transform="translate(-262.684 -71.22)"/><path class="k" d="M440.677,84.479a4.406,4.406,0,0,1-4.337-4.334,4.262,4.262,0,0,1,1.292-3.075,4.111,4.111,0,0,1,3.045-1.311,4.173,4.173,0,0,1,3.1,1.311,4.262,4.262,0,0,1,1.3,3.075,4.173,4.173,0,0,1-1.311,3.046A4.222,4.222,0,0,1,440.677,84.479Zm-3.514,30.731V87.771h7.081V115.21Z" transform="translate(-318.702 -69.095)"/><path class="l" d="M480.19,113.961V73.9h7.081v40.061Z" transform="translate(-348.177 -67.845)"/><path class="m" d="M551.884,110.06a9.738,9.738,0,0,1,7.54,3.072,11.723,11.723,0,0,1,2.826,8.232v16.9h-7.081V121.875a5.615,5.615,0,0,0-1.206-3.842,4.318,4.318,0,0,0-3.4-1.374,4.641,4.641,0,0,0-3.757,1.593,6.993,6.993,0,0,0-1.344,4.609V138.27h-7.081V121.878a5.616,5.616,0,0,0-1.206-3.842,4.318,4.318,0,0,0-3.4-1.374,4.744,4.744,0,0,0-3.75,1.574,6.778,6.778,0,0,0-1.4,4.609v15.408H521.54V110.827h7.078v2.908q2.469-3.672,7.629-3.675a8.142,8.142,0,0,1,7.461,3.934Q546.452,110.063,551.884,110.06Z" transform="translate(-375.972 -92.151)"/><path class="n" d="M673.915,112.4h7.579l-10.005,27.482q-2.141,5.878-5.675,8.54a13.029,13.029,0,0,1-8.8,2.39v-6.583a7.126,7.126,0,0,0,4.527-1.21,8.419,8.419,0,0,0,2.662-4.059L652.96,112.407H660.7l7.153,18.44Z" transform="translate(-464.309 -93.724)"/><path class="o" d="M800.586,110.09h16.188v7.245H793V78.92h23.486v7.238h-15.9v8.2h14.542v7.134H800.586Z" transform="translate(-558.44 -71.22)"/><path class="p" d="M906.435,81.637q-5.819-.439-5.816,4.665v.823h5.816V93.93H900.62v20.633h-7.081V93.93h-8.13v20.633H878.34V93.93h-3.95V87.125h3.95v-.275q0-5.812,3.239-8.832t9.658-2.623v6.793q-5.829-.439-5.829,4.662v.275h8.13V86.3q0-5.812,3.278-8.835t9.632-2.623Z" transform="translate(-613.148 -68.449)"/><path class="q" d="M981.889,127.428q1.426,5.16,7.737,5.157a7.244,7.244,0,0,0,6.147-2.741l5.707,3.278q-4.062,5.871-11.962,5.871-6.806,0-10.92-4.114a14.477,14.477,0,0,1,10.369-24.859,13.087,13.087,0,0,1,9.963,4.17,14.515,14.515,0,0,1,3.934,10.317,16.794,16.794,0,0,1-.272,2.908Zm-.108-5.488h13.992a6.658,6.658,0,0,0-2.495-4.17,7.166,7.166,0,0,0-4.311-1.374,7.438,7.438,0,0,0-4.717,1.456,6.927,6.927,0,0,0-2.469,4.088Z" transform="translate(-680.425 -92.124)"/><path class="r" d="M1083.876,139.031a14.488,14.488,0,1,1,0-28.973,14.2,14.2,0,0,1,7.3,1.921,12.763,12.763,0,0,1,5,5.157l-6.094,3.567a6.206,6.206,0,0,0-2.495-2.688,7.261,7.261,0,0,0-3.76-.983,7.088,7.088,0,0,0-5.265,2.111,7.969,7.969,0,0,0,0,10.756,7.075,7.075,0,0,0,5.265,2.111,7.516,7.516,0,0,0,3.816-.961,6.032,6.032,0,0,0,2.495-2.659l6.147,3.511a13.735,13.735,0,0,1-5.1,5.186A14.058,14.058,0,0,1,1083.876,139.031Z" transform="translate(-744.221 -92.149)"/><path class="s" d="M1174.984,103.477h-6.2V114.9a2.709,2.709,0,0,0,.711,2.082,3.279,3.279,0,0,0,2.088.744,30.8,30.8,0,0,0,3.4-.029v6.416q-7.3.823-10.287-1.374t-2.99-7.838V103.477h-4.776V96.671h4.776v-5.54L1168.784,89v7.671h6.2Z" transform="translate(-803.063 -77.995)"/><path class="t" d="M1228.112,118.631c0,.731.482,1.328,1.452,1.783a19.224,19.224,0,0,0,3.541,1.206,36.457,36.457,0,0,1,4.17,1.311,8.121,8.121,0,0,1,3.541,2.662,7.392,7.392,0,0,1,1.452,4.665,7.533,7.533,0,0,1-3.154,6.5,13.115,13.115,0,0,1-7.868,2.278q-8.451,0-11.526-6.53l6.14-3.442q1.2,3.567,5.38,3.563,3.786,0,3.786-2.357c0-.731-.489-1.311-1.456-1.783a20.772,20.772,0,0,0-3.541-1.236,36.241,36.241,0,0,1-4.17-1.374,8.524,8.524,0,0,1-3.537-2.606,6.832,6.832,0,0,1-1.455-4.472,7.674,7.674,0,0,1,2.99-6.393,11.674,11.674,0,0,1,7.435-2.331,12.421,12.421,0,0,1,6.091,1.508,11.044,11.044,0,0,1,4.337,4.308l-6.038,3.278a4.5,4.5,0,0,0-4.39-2.8,4.006,4.006,0,0,0-2.275.6A1.882,1.882,0,0,0,1228.112,118.631Z" transform="translate(-845.269 -92.162)"/></svg>