<svg xmlns="http://www.w3.org/2000/svg" xmlns:xlink="http://www.w3.org/1999/xlink" width="47.196" height="50.618" viewBox="0 0 47.196 50.618"><defs><style>.a{fill:url(#a);}</style><linearGradient id="a" x1="-0.097" y1="0.412" x2="0.914" y2="0.717" gradientUnits="objectBoundingBox"><stop offset="0" stop-color="#9f5dfd"/><stop offset="0.532" stop-color="#4643ea"/><stop offset="1" stop-color="#2514d6"/></linearGradient></defs><path class="a" d="M91.924,1174.9a6.272,6.272,0,0,1-2.282-.433,6.183,6.183,0,0,1-3.731-4.093c-2.6-9.087-3.341-25.839-2.272-34.746a6.271,6.271,0,0,1,7.543-5.394h0c7.879,1.679,23.846,9.9,30.51,15.7a6.316,6.316,0,0,1,2.16,4.565,6.22,6.22,0,0,1-1.861,4.614c-4.443,4.347-13.463,10.692-26.808,18.858A6.231,6.231,0,0,1,91.924,1174.9Zm-1.6-37.893c-.85,8.012-.206,22.623,1.931,30.8,14.85-9.115,21.535-14.3,24.541-17.114C110.881,1145.778,97.152,1138.684,90.32,1137.006Z" transform="translate(-258.928 -1096.806) rotate(-9)"/></svg>