<svg xmlns="http://www.w3.org/2000/svg" width="114.539" height="125.708" viewBox="0 0 114.539 125.708"><defs><style>.a{fill:rgba(0,255,255,0.25);}</style></defs><path class="a" d="M107.357,1253.861a17.323,17.323,0,0,1-6.3-1.2,17.081,17.081,0,0,1-10.307-11.307c-7.174-25.1-9.23-71.376-6.275-95.982a17.323,17.323,0,0,1,20.837-14.9h0c21.763,4.637,65.872,27.337,84.28,43.378a17.448,17.448,0,0,1,5.967,12.61,17.182,17.182,0,0,1-5.14,12.746c-12.273,12.009-37.19,29.536-74.055,52.092A17.211,17.211,0,0,1,107.357,1253.861Zm-4.431-104.676c-2.349,22.132-.568,62.492,5.334,85.069,41.022-25.181,59.486-39.489,67.791-47.275C159.725,1173.416,121.8,1153.821,102.926,1149.185Z" transform="translate(-61.271 -1131.374) rotate(1)"/></svg>