<svg xmlns="http://www.w3.org/2000/svg" xmlns:xlink="http://www.w3.org/1999/xlink" width="23.388" height="25.083" viewBox="0 0 23.388 25.083"><defs><style>.a{fill:url(#a);}</style><linearGradient id="a" x1="-0.097" y1="0.412" x2="0.914" y2="0.717" gradientUnits="objectBoundingBox"><stop offset="0" stop-color="aqua"/><stop offset="0.532" stop-color="#39e0e0"/><stop offset="1" stop-color="#39e0e0"/></linearGradient></defs><path class="a" d="M87.506,1152.3a3.108,3.108,0,0,1-1.131-.214,3.064,3.064,0,0,1-1.849-2.028c-1.287-4.5-1.656-12.8-1.126-17.218a3.108,3.108,0,0,1,3.738-2.673h0c3.9.832,11.817,4.9,15.119,7.782a3.13,3.13,0,0,1,1.07,2.262,3.082,3.082,0,0,1-.922,2.287c-2.2,2.154-6.671,5.3-13.285,9.345A3.088,3.088,0,0,1,87.506,1152.3Zm-.795-18.778a53.2,53.2,0,0,0,.957,15.26c7.359-4.517,10.671-7.084,12.161-8.481A44.815,44.815,0,0,0,86.711,1133.52Z" transform="translate(-258.928 -1100.017) rotate(-9)"/></svg>