<svg xmlns="http://www.w3.org/2000/svg" width="90.493" height="88.728" viewBox="0 0 90.493 88.728"><defs><style>.a{fill:#00005b;}.b{fill:#99f;}</style></defs><g transform="translate(-219.573 -287.683) rotate(7)"><g transform="translate(262.6 257.6)"><path class="a" d="M277.025,257.6H329.6a14.411,14.411,0,0,1,14.425,14.425v50.546A14.411,14.411,0,0,1,329.6,337H277.025A14.411,14.411,0,0,1,262.6,322.571V272.025A14.411,14.411,0,0,1,277.025,257.6Z" transform="translate(-262.6 -257.6)"/></g><g transform="translate(281.961 277.726)"><g transform="translate(0 0)"><path class="b" d="M313.2,345.708v-34.9c0-.23.115-.383.344-.383.574,0,1.11,0,1.913-.038s1.645-.038,2.564-.077,1.913-.038,2.946-.077,2.066-.038,3.1-.038a20.637,20.637,0,0,1,7,1.033,12.23,12.23,0,0,1,4.553,2.793,10.83,10.83,0,0,1,2.487,3.865,13.141,13.141,0,0,1,.765,4.4,12.32,12.32,0,0,1-2.028,7.232,11.334,11.334,0,0,1-5.472,4.132,22.088,22.088,0,0,1-7.614,1.148c-.8,0-1.339,0-1.684-.038s-.8-.038-1.454-.038v10.982a.4.4,0,0,1-.383.459h-6.581C313.315,346.167,313.2,346.014,313.2,345.708Zm7.385-28.7v11.4c.459.038.918.077,1.339.077h1.8a12.243,12.243,0,0,0,3.9-.612,6.086,6.086,0,0,0,2.793-1.8,5.116,5.116,0,0,0,1.033-3.482,5.654,5.654,0,0,0-.765-3.023,4.95,4.95,0,0,0-2.372-1.951,10.1,10.1,0,0,0-4.018-.689c-.88,0-1.645,0-2.3.038a6.944,6.944,0,0,0-1.416.038Z" transform="translate(-313.2 -310.2)"/><path class="b" d="M391.971,332.1H397.9a.782.782,0,0,1,.727.536,3.006,3.006,0,0,1,.191.842,5.2,5.2,0,0,1,.153,1.033,11.652,11.652,0,0,1,.077,1.224,12.7,12.7,0,0,1,3.635-2.908,10.607,10.607,0,0,1,5.166-1.339.4.4,0,0,1,.459.383v6.773c0,.268-.153.383-.536.383a14.773,14.773,0,0,0-3.673.344,11.683,11.683,0,0,0-2.832.918,5.151,5.151,0,0,0-1.722,1.263V358.85c0,.344-.153.459-.459.459h-6.7a.476.476,0,0,1-.536-.421v-18.94c0-.8,0-1.645-.038-2.525s-.038-1.76-.077-2.64c0-.765-.077-1.531-.153-2.3a.339.339,0,0,1,.23-.383.116.116,0,0,1,.153,0Z" transform="translate(-361.59 -323.342)"/></g></g></g></svg>