<svg xmlns="http://www.w3.org/2000/svg" xmlns:xlink="http://www.w3.org/1999/xlink" width="216" height="100.1" viewBox="0 0 216 100.1"><defs><style>.a{fill:#4643ea;}.b{clip-path:url(#a);}.c{fill:none;}.d{fill:#39e0e0;}</style><clipPath id="a"><rect class="a" width="216" height="90" transform="translate(-0.184 1080.56)"/></clipPath></defs><g transform="translate(-528 -1517.125)"><g class="b" transform="translate(528.184 436.565)"><g transform="translate(63.125 1080.869)"><path class="c" d="M0,0H89.383V89.383H0Z"/><path class="a" d="M114.4,85.307h26.07v7.449H114.4Zm0-14.9H151.64v7.449H114.4Zm0-14.9H151.64v7.449H114.4Zm44.692-14.9H143.521a11.129,11.129,0,0,0-21.005,0H106.949a6.524,6.524,0,0,0-1.49.149A7.525,7.525,0,0,0,100.1,45.2a7.175,7.175,0,0,0-.6,2.868V100.2a7.641,7.641,0,0,0,.6,2.9,7.893,7.893,0,0,0,1.6,2.384,7.478,7.478,0,0,0,3.762,2.048,9.665,9.665,0,0,0,1.49.112h52.14a7.471,7.471,0,0,0,7.449-7.449V48.064A7.471,7.471,0,0,0,159.089,40.615Zm-26.07-.931a2.793,2.793,0,1,1-2.793,2.793A2.814,2.814,0,0,1,133.019,39.684Zm26.07,60.52h-52.14V48.064h52.14Z" transform="translate(-88.327 -29.442)"/></g></g><g transform="translate(643.624 1561.025)"><path class="c" d="M0,0H56.2V56.2H0Z"/><g transform="translate(4.683 4.683)"><path class="d" d="M6.683,6H2V38.784a4.7,4.7,0,0,0,4.683,4.683H39.467V38.784H6.683Z" transform="translate(-2 3.367)"/><path class="d" d="M38.784,2h-28.1A4.7,4.7,0,0,0,6,6.683v28.1a4.7,4.7,0,0,0,4.683,4.683h28.1a4.7,4.7,0,0,0,4.683-4.683V6.683A4.7,4.7,0,0,0,38.784,2ZM24.757,32.442a2.447,2.447,0,1,1,0-4.894,2.39,2.39,0,0,1,2.435,2.435A2.439,2.439,0,0,1,24.757,32.442Zm5.854-14.448c-1.475,2.178-2.88,2.833-3.653,4.238-.3.562-.422.937-.422,2.763H22.977a7.544,7.544,0,0,1,.609-3.864c.96-1.709,2.763-2.716,3.817-4.215a2.889,2.889,0,0,0-2.67-4.543,3.721,3.721,0,0,0-3.513,2.88l-3.208-1.335a6.969,6.969,0,0,1,6.7-4.894,6.624,6.624,0,0,1,5.878,2.951A5.872,5.872,0,0,1,30.611,17.994Z" transform="translate(3.367 -2)"/></g></g></g></svg>