<svg xmlns="http://www.w3.org/2000/svg" width="61.846" height="61.846" viewBox="0 0 61.846 61.846"><defs><style>.a{fill:none;stroke:#4643ea;stroke-miterlimit:10;stroke-width:2px;}.b{fill:#4643ea;}</style></defs><g transform="translate(1 1)"><g transform="translate(0 0)"><path class="a" d="M30.7,60.656h0A29.923,29.923,0,0,1,.78,30.733h0A29.923,29.923,0,0,1,30.7.81h0A29.923,29.923,0,0,1,60.626,30.733h0A29.923,29.923,0,0,1,30.7,60.656Z" transform="translate(-0.78 -0.81)"/><path class="b" d="M9.64,34.549A18.631,18.631,0,0,0,38.3,18a12.883,12.883,0,0,0,3.276-3.386,13.213,13.213,0,0,1-3.764,1.039A6.567,6.567,0,0,0,40.7,12.012a12.8,12.8,0,0,1-4.158,1.575,6.567,6.567,0,0,0-11.166,5.985,18.568,18.568,0,0,1-13.513-6.851,6.583,6.583,0,0,0,2.032,8.756,6.709,6.709,0,0,1-2.961-.819,6.552,6.552,0,0,0,5.244,6.5,6.646,6.646,0,0,1-2.961.11,6.583,6.583,0,0,0,6.126,4.551A13.182,13.182,0,0,1,9.64,34.549Z" transform="translate(4.314 5.359)"/></g></g></svg>