<svg xmlns="http://www.w3.org/2000/svg" width="110.599" height="96.504" viewBox="0 0 110.599 96.504"><defs><style>.a{fill:none;}.b{fill:#4643ea;fill-rule:evenodd;}.c{fill:#39e0e0;}</style></defs><g transform="translate(-10295.199 1859.232)"><g transform="translate(10314.915 -1853.611)"><path class="a" d="M0,0H90.883V90.883H0Z"/><path class="b" d="M47.441,17.147V9.574H32.294v7.574ZM9.574,24.721V66.375H70.162V24.721Zm60.588-7.574a7.547,7.547,0,0,1,7.574,7.574V66.375a7.547,7.547,0,0,1-7.574,7.574H9.574A7.547,7.547,0,0,1,2,66.375l.038-41.655a7.515,7.515,0,0,1,7.536-7.574H24.721V9.574A7.547,7.547,0,0,1,32.294,2H47.441a7.547,7.547,0,0,1,7.574,7.574v7.574Z" transform="translate(5.574 5.574)"/></g><g transform="translate(10295.199 -1859.232)"><g transform="translate(0 0)"><rect class="a" width="48.086" height="48.086"/></g><g transform="translate(1.934 2.938)"><path class="c" d="M45.219,22.6,40.315,17,41,9.58,33.742,7.932,29.943,1.5,23.11,4.435,16.276,1.5l-3.8,6.412L5.221,9.54,5.9,16.977,1,22.6l4.9,5.608-.683,7.437L12.477,37.3l3.8,6.412,6.834-2.955,6.834,2.935,3.8-6.412L41,35.629l-.683-7.417ZM19.271,32.092l-7.638-7.658,2.975-2.975,4.663,4.683,11.758-11.8L34,17.318Z" transform="translate(-1 -1.5)"/></g></g></g></svg>