<svg xmlns="http://www.w3.org/2000/svg" width="61.846" height="61.846" viewBox="0 0 61.846 61.846"><defs><style>.a{fill:none;stroke:#4643ea;stroke-miterlimit:10;stroke-width:2px;}.b{fill:#4643ea;}</style></defs><g transform="translate(1 1)"><g transform="translate(0 0)"><path class="a" d="M30.7,60.656h0A29.923,29.923,0,0,1,.78,30.733h0A29.923,29.923,0,0,1,30.7.81h0A29.923,29.923,0,0,1,60.626,30.733h0A29.923,29.923,0,0,1,30.7,60.656Z" transform="translate(-0.78 -0.81)"/><path class="b" d="M44.4,15.516a4.725,4.725,0,0,0-3.323-3.229c-2.9-.787-14.552-.787-14.552-.787s-11.638,0-14.552.787a4.725,4.725,0,0,0-3.292,3.307A49.546,49.546,0,0,0,8,24.54a49.546,49.546,0,0,0,.772,9.024,4.725,4.725,0,0,0,3.292,3.307c2.914.787,14.552.787,14.552.787s11.654,0,14.552-.787a4.725,4.725,0,0,0,3.292-3.307,49.545,49.545,0,0,0,.772-9.024,49.546,49.546,0,0,0-.835-9.024ZM22.743,30.084V19.059L32.476,24.6Z" transform="translate(3.369 5.336)"/></g></g></svg>